<?xml version="1.0" encoding="utf-8"?>
<!-- Generator: Adobe Illustrator 24.0.0, SVG Export Plug-In . SVG Version: 6.00 Build 0)  -->
<svg version="1.1" id="レイヤー_1" xmlns="http://www.w3.org/2000/svg" xmlns:xlink="http://www.w3.org/1999/xlink" x="0px"
	 y="0px" viewBox="0 0 456.9 195.5" style="enable-background:new 0 0 456.9 195.5;" xml:space="preserve">
<style type="text/css">
	.st0{fill:#8EE9E6;}
</style>
<g id="レイヤー_1_1_">
	<title>アセット 4</title>
	<path class="st0" d="M165.3,67.6l-1-0.5l-0.6-0.1l-1.1-0.7l-0.1-0.2c-0.4-0.1-0.7-0.2-1-0.5l-2.3-1.1l-0.6-0.2l-0.7-0.1l-0.8-0.2
		l-0.4-0.2l-0.2-0.1l-0.6-0.5l-1.4-0.8l-3.2-1.4c-2.4-1-2.3-1.2-4.9-2.4l-0.7-0.2l-1.6-0.2l-2.6-1.1H141l-1.1-0.6l-0.2-0.6l-1.8-0.8
		l-1.4-0.2l-2.9-1.6l-2-0.8l-2.8-1.3h-0.1l-3.4-1.1l-3.1-1.3l-1.1-0.5l-1.6-0.1l-0.4-0.4v-1.1l-0.5-0.5l-1.8-1.2l-1-0.5l-1.8-1.2
		l-0.5-0.1l-0.6-0.2l-0.6-0.5l-0.4-0.6l-0.7-0.2l-0.2-0.2h-0.2l-0.4,0.1l-0.2-0.2l-0.4,0.1h-0.1l-0.7-0.4v0.1l-0.1-0.1L109,41
		l-0.2-0.4l-0.4-0.1v-0.1l-0.7-0.7l-0.5-0.8l-0.2-0.2l-0.6-0.6l-0.5-0.6l-0.2-0.7v-0.5l-0.1-0.2l-0.4-0.5l-0.1-0.4l-0.2-0.1
		l-0.4-0.1l-0.4-0.4l-0.2-0.1l-0.4-0.6l-0.1,0.1v-0.1l0.1-0.1v-0.4l-0.2-0.4l0,0l-0.2-0.8v-1.4l0.1-0.2v0.1l0.1-0.8l-0.1-0.1l0.5-1
		l0.5-0.4l0.4,0.1c0-0.5,0.1-0.9,0.2-1.4v-0.8h-0.1v-0.1h0.2l0.1-0.4v-0.4l0.1-0.1v-0.1l0.2-0.8l0.5-0.7l0.2-0.5l0.2-0.1v0.1
		l0.5-0.7v-0.1l0.5-0.4l0.5-0.2h0.1l0.4-0.7l1.6-1.8l1.9-1.1l0.4-0.4l3-1.6l1-0.4c0-0.1,0-0.1,0.1-0.1l0.7-0.6l3-1.6l0.8-0.6
		l3.2-1.6l1.8-0.7l3.8-1.8l1.4-1.1l0.7-0.4l0.6-0.8h0.4l0.7,0.2l0.4-0.1l0.8-0.2l0.5-0.1h0.7l3.7-1.4l0.4-0.2l0.6-0.4h0.6l1.4-1h1.8
		l0.8-0.2l0.5,0.1l2.4-0.6l1.6-0.6l1.4-0.2l1.8-0.1l0.6-0.2l0.5,0.1l1.1-0.2l0.4-0.1l1.6-0.2l0.8-0.7l0.6,0.1l0.2-0.2l1.1-0.1
		L159.5,0l0.2-0.2v0.5l0.6,0.1l0.4-0.2l0.4,0.1l0.1,0.1h1.1l0.8,0.2h0.8l1.2,0.4c0.9,0,1.8,0.2,2.6,0.6l0.2-0.1l0.7,0.5h0.4l0.1-0.1
		l0.1,0.1l-0.1,0.1l0.4,0.2l0.2,0.4l-0.1,0.2c0.4,0.4,0.7,0.8,1,1.3c0.1,0.2,0.1,0.4,0,0.6l-0.5,0.8h0.1l0.8,0.7l0.8-0.5l-0.4,1.4
		l-0.6-0.3v1.3l-0.2,1.4v0.5l-1,0.5l-0.8-0.2l-1-0.7l-1.1-1.4l-0.4-1.6L165.5,6V4.4L164.7,4l-0.4,0.1l-2,0.6l-1.1,0.4L161,5.2
		l-0.5-0.1L160.2,5l-0.5-0.6L159,4.1l-0.4-0.2l-1.1-0.2l-1-0.5h-0.2l-0.1-0.1l-1,0.1l-0.5,0.5l-1,0.8l-1.4,0.4l-0.6-0.5l-0.6-0.3
		l-2.4,0.6l-0.4,0.1l-0.4,0.5l-0.4-0.1l-0.7,0.2l-0.5-0.1l-0.4,0.2h-0.7l-1.1-0.1l-0.9,0.3h-0.4l-0.5-0.1h-1
		c-3.5,1.1-6.8,2.4-10.1,3.8L131,9.5l-1.6,0.8l-0.8,0.8l-1,0.2l-1.8,0.5l-7.7,3.8l-1.6,1.1l-2.5,2v0.1l0,0l-0.7,0.7l-0.2,0.1l-3.5,3
		l-0.4,0.1l0.1,0.4v1.4l0.1,0.7l-0.1,0.2v0.2l-0.2,0.2l-0.5,0.4l-0.2,0.9l-0.6,0.7l-0.5,0.7v0.2l-0.1,0.2v0.7l0.1,0.1v0.1l0.1,0.3
		l0.4,0.6v1.1l-0.4,0.3l0.7,0.4l0.5,1l0.6,1.3l1.1,1l0.4,0.5l0.2,0.6l1,1.4l1.6,1.4l0.8,0.5l0.8,0.6l0.2,0.4l2.3,1.4l1.1,0.5
		l0.2,0.2l2.6,2.2l1.1,0.5l1.1,0.2l0.8,0.6l0.7,0.5l1.9,1.1c0.1,0,0.3,0,0.4,0.1l0.6,0.1l1.6,0.7l0.6,0.2l0.2,0.1
		c0.4,0.2,0.8,0.4,1.3,0.6L137,53l0.4,0.1l1.6,0.6l0.4,0.2l0.6,0.4l0.7,0.1l1.2,1c1.4,0.7,2.9,1.3,4.3,1.9l1.1,0.4l0.5,0.1l0.1-0.1
		h0.1l0.1,0.6c0.4,0.1,0.5,0,0.8,0.2l0.5,0.1l1.2-0.1l0.5,0.1l1.3,0.5l1,0.8l1.6,0.7l3.7,1.6h0.6l1,0.5v0.1l0.4,0.1h0.2l0.5,0.2l0,0
		l0.2,0.1l0.5,0.5l0.1,0.2l0.1,0.1l0.2,0.1v0.1L166,66l1.1,0.4l0.1,0.4c0.1,0,0.2,0,0.2,0.1l1,0.2l0.1,0.1l0.8,0.1l0.7,0.6l0.7,0.1
		l0.8,0.2l0.5,0.4l0.8,1l0.5,0.4l0.5,0.5h0.1l1.2,0.7c1.3,0.8,2.5,1.8,3.7,2.9h0.1l0.5,0.4l0.8-0.1l0.2,0.2l0.2,1l0.4,0.6l1.2,1.9
		l1.1,2v0.2c0.8,2,1.2,4.2,1,6.4l0.1,0.1v0.4l0.2,0.4h0.2v0.1h-0.2v1.1l-1.4,1.4c-1,1.9-2.4,3.6-4.1,5c-1.6,1.3-3.2,2.5-4.9,3.7
		l-1.3,1.2l-1.1,0.5l-0.4,0.1c-2.5,1.4-5,2.8-7.6,4.1v0.4l-0.2,0.1l-0.1-0.1V105l-4.1,1.9l-1,1.2l-1,0.5l-1.3,1.1l-0.8,0.4l-0.5,1.4
		l-0.5,0.2h-2.2l-1.7,0.4l-4.8,1.1l-4.7,0.6h-0.1l-5.6,1.8l-3.5,1.1l-0.4,0.1l-1.4,0.7l-0.2,0.2l-1.3,0.4l-0.5,0.1l-0.4,0.2
		l-2.2,0.7h-0.4l-0.5,0.1H124l-1,0.5l-0.2-0.1l-0.6,0.4l-0.7,0.2l-0.4,0.2l-0.8,0.2l-1,0.2l-3.1,1.1l-0.7,0.5l-0.4-0.1l-0.2-0.1
		l-1.2-0.1l-2.5,0.2l-8.3,1.9L92.1,127l-6.8,1.9l-4.8-0.2l-1.1-0.4l-4.1,0.2c-0.7,0.1-1.5,0.2-2.2,0.2v0.1l-1.8,0.2l-3.1,0.2H68
		c-4.2,0.4-8.4,0.6-12.5,0.7l-0.5,0.2l-0.4-0.1h-0.5l-0.4,0.2l-5.3,0.1l-0.2,0.1l-0.2-0.1l-1.6,0.2l-5.6-0.2l-2.4,0.7l-0.8,0.4
		l-3.1-1.1l-0.6,0.2l-0.6-0.1l-0.5-0.5c-0.2,0-0.5-0.1-0.7-0.1v0.1l-1.3-0.1l-0.8-0.1l-0.1-0.1c-0.6,0-1.2-0.1-1.8-0.1l-0.2,0.1
		l-1.3-0.1l-0.4-0.1l-0.4-0.2h-0.4l-3.5-0.2l-0.4,0.1V129l-1.1-0.2h-0.2l-5.4-1.7l-0.5-0.1l-2.3-0.6l-0.4,0.1l-0.5-0.1l-0.2-0.4
		l-0.7-0.6c-2.3-0.9-4.4-2.4-6.1-4.3h0.2L4.1,121l-0.7-1.2L3,118.5l-0.7-1.2L2,116.6l0.1-0.2l-0.7-1.6H1.3L1,114.3l-0.2-0.5v-0.1
		l-0.2-0.8v0.1l-0.2-0.2v-0.5L0,111.4l0.1-0.8v-0.4l0.1-0.2v-0.4L0,109.5l0.1-0.1h0.1l0.2-0.6l0.1-0.1l0.2-0.1l0.1-0.4l0.2-0.1
		c0.2-0.5,0.5-1,0.8-1.4l0.2-0.5l0.4-1.1l0.8-0.7l1-0.7c0.8-0.9,1.6-1.7,2.6-2.4l8.2-7.9l1-0.8l0.1-0.2l1.8-1.6l0.5-0.5l0.6-0.7l1-1
		l0.2-0.1l1.3-1.2l0.4-0.5l0.7-0.6l0.6-0.2l0.6,0.1v0.4L23.5,87l-0.4,0.2c0,0.1-0.1,0.1-0.1,0.2c-0.7,0.7-1.7,1.2-2.4,1.9l-0.4,0.5
		L19.8,90l-1.1,1l-0.5,0.4l-1,1.1l-0.4,0.6l-0.4,0.4l0.1,0.1l-2,2l-1,1.1l-1.1,1L12,98.2l-0.5,0.5l-1.1,1.2v0.2l-0.7,0.5l-0.5,0.6
		l-2.4,2.3c-1.2,1.6-2.2,3.4-3,5.3v0.1l-0.5,1.4l0.4,0.7l-0.1,0.2l0.1,0.2l-0.2,0.1l0.1,0.1l-0.1,0.2l0.1,0.2l-0.5,0.7l0.2,0.5
		L3,113.8l0.1,0.2L3,114.2c0,0.2,0.1,0.5,0.1,0.7l0.5,0.4l0.5,0.6l0.2,1.1l-0.2,0.2c0,0.1,0,0.1,0.1,0.2l0.5,0.1l0.7,0.8l1.7,1.2
		l1.7,1.6l0.4,0.2l0.8,0.8l1,0.4l0.5,0.1l1.1,0.5l1.6,0.7l0.6,0.5l0.6,0.4l2.4,0.8h1l0.6,0.4L20,126h0.6l0.7,0.1l0.2,0.2l0.5,0.1
		c3.1,0.6,6.3,1.1,9.5,1.3h0.1l0.2,0.1h0.1l2.3,0.1h0.7c0.2,0,0.4,0.1,0.6,0.1l1.1-0.1L37,128l0.6-0.1l1.3,0.1l0.2-0.1l0.6,0.2
		l0.6-0.1l1.2,0.1h4.9l1.8-0.1l0.5,0.1l4.4-0.2l1.7-0.2l1.6-0.5l1.3,0.1l1.2,0.1l3.5-0.4H63l2.4-0.2l1.1-0.4l2.8-0.1l1.7-0.2
		l4.2-0.5l4.3-0.6l1.2,0.4l1.3-0.2h2.8l7.9-1.4l0.1-0.1v-0.2l0.1-0.2l0.2,0.2l0.7-0.2l1.7-0.7l0.6-0.1l1.8-0.5l1.8,0.4h0.1l3.4-0.7
		l1.8-0.6l6.4-2.2l4.9-0.2l2.4-0.7l0.4-0.5h0.5l0.8-0.1l0.6-0.4l0.2,0.1l0.2-0.4l1.8-0.6h0.6l4.7-1.3l1.6-0.8l1.7-0.7l1.1-0.4
		l1.3-0.1l3.7-1.1l1-0.5l2.5-0.8l0.8-0.6l2.9-0.7l1.8-0.8l4.4-1.4l4.2-2l1.3-0.4l1.3-0.7l1.1-0.2c0.3-0.2,0.7-0.4,1.1-0.5l0.8-1
		l0.2-0.2l0.8-0.1l1.4-0.7l1.1-0.6h0.4l1.4-0.6l1.2-0.7l0.5-0.2l0.4-0.2h0.2l2.2-1.3l0.2-0.2l1-0.5l1.4-1.1l0.8-1l0.7-1.1l1.2-0.1
		c0-0.1,0-0.1,0.1-0.1v-0.1l0.2-0.5l1.2-0.7c1.7-1.6,2.8-3.7,3.2-6l-0.1-0.5l-0.2-1.6l-0.1-1.4h0.2v-0.4l0.1-0.2l-0.4-0.6l-0.1-0.4
		l-0.8-1.2l-1-1.4l-1.4-2.4c-1.4-1.3-2.8-2.6-4.4-3.7l-2.6-1.8l-0.4-0.2l-0.2-0.1l-2.9-1.8c0-0.1,0-0.1-0.1-0.1l0,0l-0.1-0.1
		c-0.1,0-0.2,0-0.2-0.1L165.3,67.6z"/>
	<path class="st0" d="M236.4,86.6v0.8l-0.5,0.7l-0.1,0.1l-0.2,0.8l0.1,0.2l-0.4,0.6c-0.1,0.5-0.1,0.9-0.1,1.4l0.1,0.7l0.4,0.5
		l0.5,0.6l0.6,0.4l0.6,0.2c0.4,0,0.9-0.1,1.3-0.2l1-0.4l0.2-0.2h0.4l4.3-2.5l0.5-0.1l0.6-0.2l4.3-3.1c0.1,0,0.2-0.1,0.4-0.1l2.4-1.7
		l0.4-0.5h0.5l0.7-0.6l1.4-0.7l1.8-1.3l0.4-0.4l1.2-0.7l0.1-0.1l1.9-1.7c0.1-0.1,0.2-0.1,0.4-0.1l0.2-0.2l0.5-0.2l0.5,0.6v0.6
		l-0.4,0.2l-1.1,0.6l-1.7,1.1l-0.5,0.5l-1.4,1.1c-1.4,1.2-2.8,2.3-4.1,3.6l-1.1,1h-0.4l-0.7,0.5l-0.4,0.5l-0.2,0.1l-0.4,0.6
		l-0.7,0.5l-0.5,0.2l-0.7,0.6l-0.4,0.4l-1.2,0.7l-0.5,0.5l-0.7,0.2l-1,0.2l-0.2,0.2l-1.2,0.6l-1.9,1.4l-0.4,0.2l-0.7,0.6l-0.4,0.2
		h-0.2l-0.4,0.2l-1,0.5l-0.8,0.2l-1.2,0.1c-0.5,0.2-1,0.4-1.6,0.5c-0.3,0-0.7,0-1-0.1l-0.7,0.1l-0.6-0.5l-0.2-0.4
		c0-0.1,0-0.1-0.1-0.1l0,0l-0.7-1v0.1l-0.5-0.7l0.1-2.3l0.1-2.2l0.1-0.8l-0.1-1l0.1-0.2l0.7-0.4l0.2-0.5l0.5-0.6l0.1-0.5l0.7-0.8
		l0.2-0.5l0.2-0.4l0.2-1.4l0.8-1.6c0.5-1.8,1.2-3.8,1.8-5.6l0.6-1.8c0.9-1.2,1.3-2.7,1.1-4.2l0.1-0.2l0.1-0.8l-0.6-0.6
		c-1.1,0.1-2.2,0.5-3.2,1.2l-1.8,1l-0.8,0.2l-1.3,0.7l-1,0.7l-0.2,0.2l-1,0.5l-0.8,0.7l-2.3,1.1l-0.6,0.2c-0.5,0.2-1,0.5-1.4,0.8
		l-0.4,0.4l-6.2,3.7l-0.6,0.8h-0.6l-0.4,0.6l-0.5,0.5l-0.8,1l-1.2,0.2l-1.9,1.8l-3.6,3.4l-3.1,2.7l-2.9,2l-0.6,0.4l-0.8,0.5
		l-0.7,0.7V95l-0.7-0.2l-1.9,1l-1.3,0.8l-1.2,0.2l-2.2,0.1l-0.5,0.5h-0.8l-0.6-0.6l-0.2-1.1l0.2-1.6l0.6-1.8l0.2-0.8l1-1.7l0.6-1.1
		l0.7-1.8l0.1-0.2l0.4-0.6l0.4-1l0.1-1.2l0.4-1.4l1.1-1.6l0.5-1.8l0.4-0.8l0.6-1l0.8-1.2l0.5-0.7l0.5-0.8l1.9-2.4l1-1.9l0.1-0.5
		l0.1-0.1l0.1-0.4l0.4-0.1l1.4-1.9l0.2-0.4l0.2-0.5h0.1l1.7-2.6l0.4-0.7l0.6-0.7l0.8-1.2l0.5-1.2l0.5-0.7l1.3-1.3
		c0.6-1,1.2-1.9,1.9-2.9l1.8-3.6l0.8-0.6c2-3.1,4.2-6.4,6.3-9.6l0.4-0.5l0.2-0.5l0.5-1.1l1-0.8l0.7-1.2l0.8-0.6l0.1-0.8l0.4-0.2
		l1.1-1l0.6-0.8l0.5-0.8l1-2.2l0.6-1.1l0.7-1l0.8-1l1.1-2.2l0.1-0.5l0.2-0.6l-0.4-0.4v-0.1l0.6-1.1l0.1-0.1h0.1l0.4-0.6l0.4-0.5
		l0.2-0.1l0.1-0.2l0.8-1.2l0.8-1.1l0.5-0.7l0.2-0.1l-0.1,0.2l0.1-0.1v-0.1l0.4-0.8l0.1-0.5L236,16l0.4-0.7l0.4-0.5l0.2-0.4l1.4-1.8
		l0.6-1.1l0.5-1.1V9.8l0.2-0.7l0.4-0.5L239.7,8l0.1-0.4l1-0.2l1.4-1.2l0.6-1l1.7-1.4l0.7-1l0.5-0.7V1.8l0.5-0.4l0.1,0.7l1-1.1l1-0.5
		l1,1l0.4,1.6L248,7.3l-2.7,3.8l-1.1,1.2l-2.6,2.5l-1.3,1l-4.8,7.4l0.1,0.1l-0.6,1l-0.8,1.4l-0.6,1.1l-0.7,0.7l-1.1,1l-4.5,6.6v0.5
		l-1.1,1.7l-0.5,0.8l-0.6,0.5l-0.7,1l-1.1,1.7l-2.7,3.4l-0.1,0.8l-1.8,1.8l-1,1.5l-0.2,0.7l-1.7,2.3l-1.2,2l-1,0.8l-5.3,8.4
		c-1.1,1.7-2,3.4-3.2,5.2l-0.1,0.5l-0.2,0.2l-0.4,0.5c-1.2,1.8-2.2,3.6-3.3,5.7l-0.1,0.2l-0.2,0.1l-1.1,1.9v1L199,81l-0.7,2.2
		l-1.2,3.2l-0.8,2.2l-0.2,1.2l-0.8,1.7l-0.2,1.7l0.5,0.7l0.5,0.2h0.6l1.6-0.8l0.7-0.7l0.2-0.1l0.4-0.5l0.8-0.4L201,91l0.7-0.6
		l0.5-0.5l1.3-0.7L204,89l1-0.7l3.7-2.5l1-0.8l0.1-0.3l0.7-0.7l0.5-0.2l1.6-0.8l4-3.1l0.2-0.4l1-1l1.9-1l1.4-1l0.4-0.1
		c1.3-1,2.6-1.8,4-2.8l1.6-1.6l1-0.6l0.4-0.5l0.6-0.1l0.4-0.4l1-0.7l1.1-0.2l2.8-0.7h0.5c2.1-0.7,4.3-0.9,6.4,0
		c0.2,0.1,0.5,0.2,0.5,0.5l0.6,0.4l1,0.6l0.2,0.7l-0.1,1l-0.7,1.6l-0.1,0.1c-0.9,1.8-1.5,3.6-2.2,5.5c-0.5,1.3-1,2.6-1.5,3.8v1.1
		l-1.1,1.6L236.4,86.6z"/>
	<path class="st0" d="M295,85.4l0.1-0.2l0.2-0.4l2.2-2.6l0.5-1l0.4-0.4l0.1-0.2l0.4-0.2l1.4-1.6l0.5-0.6V78l0.1,0.1l0.4-1.2
		l-0.1-0.1l-0.6-0.1h-1.1l-1.4,0.4l-3.5,1.3l-0.8,0.2l-0.6,0.1l-3.5,2.2h-0.1l-1,0.6l-0.8,0.4l-0.8,0.5l-2.8,1.3l-2.8,1.6l-1.1,0.5
		l-1.8,1L278,87l-1.5,0.6l-0.7,0.2l-2.2,1.3l-0.7,0.5l-0.7,0.6l-1.1,0.4l-1.1,0.5l-2.9,1.6l-0.2,0.2l-1.2,0.7h-0.2v0.1h-1.1
		l-1.4,0.6h-1c-0.4,0.2-0.8,0.4-1.2,0.5l-0.5,0.4L258,96l-0.5,0.1l-1.8,0.7l-0.2,0.1l-0.4,0.1h-0.4l-0.7-0.1l0,0
		c-1.9,0.2-3.5-0.1-4-1.4c-0.5-1.6,0-3.4,0.8-5.3l0.5-1.4l0.4-0.1l0.1-0.5l0.5-0.7l0.2-0.5l0.2-0.1V87l0.2-0.6l0.8-1.2l1.3-1
		l0.2-0.2l1-1.6l0.5-0.6l1-0.7L259,80l5.4-4.8v-0.1h0.1l1.6-1.3l0.4-0.4l2-1.7l1-0.6l3.1-2.3l0.1-0.1l1.4-1.6l0.6-0.6l0.5-0.8
		l0.2-0.1l0.8,0.1l0.4-0.2l0.8-0.2l0.5-0.1l0.6-0.1l0.5-0.4v-0.2l1-0.4l3.8-1.9l0.7-0.6l0.5-0.2l1-0.2l0.2,0.1l0.2-0.1l1.1-0.4h0.4
		l0.6-0.4l0.8-0.1l0.7-0.2l0.8-0.2l0.8-0.2l1.2,0.4l0.7-0.1h0.7l0.5,0.1h0.2v0.1h0.5l0.4,0.2l0.1,0.2l0.5,0.1l0.2,0.6v1.1l-0.4,0.2
		c-0.1,0.4-0.5,0.6-1.3,1.4c-0.2,0.2-0.6,0.2-0.8,0l-1.3,0.4l-0.8,0.1h-2.2l-1.9-0.2v0.1h-0.5v-0.1h-0.2l-0.8,0.1h-0.8l-1.7,0.7
		l-1.9,0.8l-2.8,1.2l-1.9,0.8c-0.7,0.4-1.3,0.8-2,1.3c-0.1,0.1-0.1,0.1-0.1,0l-1.1,0.8l-0.1,0.1l-0.2,0.1l-5.4,4l-0.5,0.5l-1.1,1.2
		l-0.8,0.8l-0.8,0.5l-1.1,0.6l-0.4,0.4l-1.1,1.2l-0.2,0.2l-0.2,0.4l-1.4,1.8l-0.4,0.2l-0.2,0.2l-0.6,0.5l-0.2,0.5l-0.4,0.5h-0.2
		l-0.2,0.6l-0.5,0.6l-0.2,0.5l-0.6,0.6l-0.7,0.7l-1.2,1.4v0.2l0.1,0.7l-0.1,0.2v0.2l-0.2,0.2l-0.5,0.4l-0.4,0.5l-0.6,0.7l-0.5,0.7
		V92l-0.1,0.2v0.7l0.2,0.4l0.4,0.6l0.4,0.2l2.5-1l1.1-0.2l1.7-0.6h0.1l0.6-0.1c1.6-0.6,3.1-1.3,4.7-2l0.6-0.4l0.8-0.5l0.6-0.5h1
		c1.3-0.6,2.8-1.2,4.1-1.9l0.6-0.5l0.8-0.4v-0.1l0.2-0.1l0.4-0.4l0.5-0.1l1.8-0.8l1-0.5l0.8-0.5l3.2-1.7l0.8-0.6l3.4-1.6l0.7-0.2
		l2.2-1.1l1.1-0.8l2.2-1.1l0.6-0.5l1-0.6l0.6-0.5l1.4-1l1.6-1l3.7-0.8h1.4l1.1,0.2l0.8,0.5l0.5,0.4c0.5,0.1,0.7,0.4,1,0.8V74
		l0.2,0.1v0.5l-0.1,0.4h0.2l-0.1,0.2l-0.1-0.1l-0.2,0.2l-0.2,0.4l-0.4,0.9l-0.7,0.6c-0.2,0.3-0.4,0.5-0.6,0.7l-0.8,1.3l-0.7,0.6
		l-0.4,0.1l-1.4,1.7l-0.2,0.2V82l-0.2,0.1l-0.7,1l-0.2,0.4l-0.2,0.5l-1,1.3c-0.2,0.2-0.4,0.5-0.5,0.8l-0.4,1l-0.1,0.1
		c-0.2,0.5-0.4,1-0.2,1.2c0,0.4-0.1,0.1,0.4,0.2c0.1,0,0.2,0.1,0.4,0.1l0.6-0.1h0.8l0.2-0.1h0.8l0.6-0.1l0.2,0.1
		c0.8-0.1,1.6-0.4,2.6-0.6l1-0.2l0.8-0.4h0.7l4.2-1.2l0.4-0.2l1.3-0.4v0.2l1.6-0.5l1-0.5l0.5-0.1l0.5-0.4l4-1.1v-0.2l0.4,0.2
		l1.1-0.4l0.4-0.4l5.8-1.7h0.6l3-1c0.1,0,0.3,0,0.4,0.1h0.2l0.1,0.8l-0.5,0.4h-1l-2,0.5l-1.4,0.7h-0.5l-1.9,0.5l-1,0.4l-2.8,1.3
		l-2,0.8l-2.3,0.7l-2.6,1l-0.5,0.2l-1.2,0.5l-0.6,0.4l-1,0.4h-0.1l-0.8,0.4l-1,0.6l-0.4,0.1l-0.2,0.2l-3.1,1.1v0.2l-0.1-0.1l-1,0.4
		l-0.1,0.2l-2,0.7l-1.8,0.6l-0.6,0.5l-0.1,0.1L298,93l-0.4,0.1l-0.2,0.2l-0.2-0.1l-0.1,0.1l-0.8,0.2h-1.9l-0.2-0.1h-0.8l-0.6-0.2
		l-0.5-0.2l-0.4-0.5l0.1-0.6l-0.1-0.5c-0.1-0.5-0.1-1.1,0.1-1.6l0.4-0.8l0.1-0.5l0.9-0.9l0.4-0.6l1-1.2L295,85.4z"/>
	<path class="st0" d="M325.4,82.7c0.3-0.2,0.5-0.4,0.7-0.6L326,81l0.6-0.6l0.5-1l0.1-0.7l0.8-0.4l0.5-1.9l0.1-0.8l0.6-1.2l0.5-1.7
		l0.4-1.2v-1.3l0.1-0.2l0.2-1.9l0.1-0.2v-0.2l-0.8,0.6l-0.4,0.4c-0.4,0.1-0.6,0-0.7-0.1c0.1-0.6,0.3-1.2,0.7-1.7l1.1-0.7l0.6-0.4
		l0.1-0.1c0.1,0,0.1-0.1,0.2-0.1c0.2-0.2,0.4-0.4,0.7-0.6l0.5-0.5l0.4-0.5l0.2-0.2v-0.5l0.1-0.1l0.2-0.1l0.5-0.4l0.5-0.2v0.2h1.1
		l0.8,0.5l0.1,0.1l0.2,0.1l-0.1,0.2l1-0.4c0.6-0.1,1,0.2,0.8,1c0,0.1-0.1,0.2-0.1,0.4l0.2,0.2l-0.4,1.4l-0.4,1.3l-1,0.7l-1.2,2.4
		l-0.1,0.7l-1,1.2l-3,5.2l1.8-1.3l0.4-0.6l1.2-1l2-1.2l1.8-1.6l0.7-0.6l1.3-0.7l1.7-0.7l1-0.5l1-0.6l1.8-0.7l4.1-2.2l0.4-0.4
		l0.1-0.5l0.1,0.1l0.5,0.2l2.9-1.4l0.4-0.2h0.2l4.9-2.2v0.1h0.1l5.9-2.4L366,59l1-0.2l5.9-2.2c1.6-0.4,3.2-0.6,4.8-0.6v-0.2l0.7-0.1
		v-0.1h0.1v0.2h0.8l0.1,0.1l0.1-0.1l0.8,0.1l0.8,0.4l0.5,0.1l0.1,0.2h-0.1l0.8,0.2h0.1l0.8,0.8v0.2h0.5l0.6,0.5l0.8,1l0.1,0.8
		l-0.6,0.7c0.7,2.9-0.6,6.1-2.9,9.4l-0.8,3.5l-0.6,0.5l-3.4,1.7V76l-1.3,1.3l-8.4,7.3l-3.2,1.6l-2.5,0.8l-0.4,0.2H361l-2,1.1
		l-0.4,0.2l-1.3,0.7l-1.1,0.2c-1.6,0.7-3.2,1.4-5,2l-1.3,0.7l-0.8,0.1l-1,0.4l-1.3,0.1c-1.4,0.5-2.9,0.7-4.3,1.1l-0.4,0.1h-0.6
		l-1.1,0.2h-0.1l-0.8,0.5l-1.2,0.1h-0.2l-0.7,0.1l-0.8-0.2l-0.8,0.2h-1l-0.5-0.1l-0.6-0.2c-2.5-0.1-5-0.7-7.3-1.7
		c-0.2,0-0.4-0.1-0.6-0.2h-0.1l-0.4-0.1l-0.7-0.5l-0.4-0.1h-0.6l-0.7-0.2l0.2,0.1l-1.2,1.9v0.1h-0.2l-0.5,0.8l-0.1,0.4l-2.8,3.8
		l-0.4,1.1l-0.6,1.2l-0.5,0.5l-0.8,0.5l-2.3,3.6l-2.8,4.3l-0.1,0.2l-0.2,0.4l-0.2,0.8l-0.8,1.1l-0.5,0.8l-0.6,1.1l-0.6,0.6l-0.7,1
		l-1,1.4l-0.8,1.7l-0.6,0.6l-0.5,0.7l-0.2,0.4l-0.8,1.1l-2.4,3.6l-0.7,1.2l-0.1,0.2l-0.7,1.1l-0.5,1l-1.6,2.3l-0.6,0.8l-1.4,2.4
		l-1.2,1.7l-0.8,1.1l-1.4,2.2l-0.2,0.1c-0.5,0.7-1,1.6-1.6,2.3l-0.2,0.5l-1,1.3l-1.1,1.4l-1.8,2.6l0.2,0.4h-0.5l-0.5,0.6l-0.6,1.1
		v0.5l-6.1,8.2l-0.7,0.6l-2.5,3.7v0.4l-0.5,0.4c-1.8,2.8-3.6,5.8-5.5,9.2l-4,7.8l-0.7,3l-1.6,4l-0.8,0.8v0.7l0.1,0.6l-0.2,0.1v0.6
		l-0.1,0.4l-0.2,1.4l-1.1,1.4l-0.7,1.3l-0.4,0.1l-0.1,0.1l-0.4,0.1l-0.8-0.4l-0.4-0.5l-0.2-0.4l-0.2-0.5v-0.2l-0.1-0.6l-0.1-0.7
		l-0.4-0.1V190l-0.2-0.8l0.1-0.4l0.1-1.6l0.1-0.1l-0.1-0.4l0.2-1.2l-0.4-0.1l0.1-0.1l0.1,0.1l0.4-1.3h0.4l0.2-0.4l0.2-0.6l0.4-0.2
		l0.1-0.1l1-3.6v-0.6l0.5-0.8l1.1-4.1l2-3.7l3.4-8.2l0.5-1.3l0.7-1.7l1.3-3.7l1.3-1.8l1.7-3.4l0.5-2l1.8-2.5l1.2-3l0.5-1.1l1.1-1.6
		l1.4-1.9l0.8-1.2l0.7-1.3l1.3-1.7l3-4.7l0.2-1.3l0.2-0.5l1-0.4c1.1-1.6,2-3.1,3.1-4.6l0.4-1.1l0.7-1.1l1-0.8l0.7-1.3l0.2-0.6
		l0.7-1.2l0.4-0.7l0.8-0.7l1-1l2.5-3.2l0.8-1.7l0.6-0.5l1-0.4l0.5-0.5l0.4-0.7l1.2-1.2l1.7-2l0.4-0.2l3.4-3.8v-0.1l0.2-0.1
		c0.2-0.3,0.5-0.6,0.8-0.8v-0.1l0.1-0.1l0.4-0.8l0.6-0.5l0.2-0.8l0.6-0.7l0.4-0.4l1.1-0.6l0.4-0.5L313,94l0.4-0.1l1.3-1.2l0.1-0.4
		l0.6-0.7l0.7-0.8l0.8-0.5l1-1l0.1-0.7l0.4-0.2h0.5c0.2-0.1,0.5-0.4,0.6-0.6l0.2-0.5l1-0.7l1.2-1.3l1.8-1.6l0.6-0.6L325.4,82.7z
		 M315.1,100.2l0.5-0.7l0.1-0.5l0.7-0.8l0.5-0.6l0.5-1.1l0.2-1.1l0.7-0.2l0.1-0.6l0.6-0.8l0.2-0.6h0.5l1.8-2.9l-0.6-0.5
		c-0.7,0.8-1.6,1.6-2.4,2.4l-1,1.2l-1.3,1.1l-1.8,1.8l-0.6,1l-1.4,1.4l-1.2,1l-0.7,0.7l-1.6,1.7l-0.5,1.2l-1.2,0.7
		c-0.7,0.7-1.3,1.6-2,2.4l-0.5,1l-0.7,0.5l-0.7,0.8l-1.8,2.5l-2,2.9l-0.2,0.4l-1.1,0.8l-0.5,0.6l-0.2,0.5l-1,1l-0.7,1.2l-1.1,1.1
		c-0.7,1-1.4,1.8-2,2.8l-0.6,0.7c-0.2,0.5-0.6,1-1,1.3l-0.7,1.1l-0.2,0.6l-0.2,0.5l-0.6,0.5c-0.1,0.3-0.3,0.5-0.5,0.7l-1.1,2.2
		l-1.2,1.2l-1.6,2.4l-0.4,1l-0.6,0.7l-0.7,1.8l-1.7,2.3l-2,3.4l-0.8,1.2l-0.7,1.3l-0.5,1l-1.1,1.9l-0.4,0.6
		c-0.4,0.7-0.8,1.5-1.2,2.3l-0.1,0.2l-0.7,1.8l-1.8,3.6l-1,1.8l-0.5,0.6l-4,8.5l-1,2.8v0.5l-0.4,0.5l-2.5,6.7l0.1,0.6
		c0.8-0.9,1.6-1.8,2.2-2.8c2.5-4.2,5.2-8.5,7.9-12.6l-0.4-0.1V162l1.6-0.8c1.1-1.7,2.2-3.4,3.4-5v-0.1h0.1l4.7-7.2l0.1-0.1
		c1.1-1.6,2.2-3,3.1-4.6l3.7-5.3l0.2-0.8l1.4-2.2v-0.5l1.2-1l0.4-1.2l1.6-1.8l4.1-6.1l1.1-1.6v-0.5l0.2-0.2l0.8-1.7l1.6-1.4l1.2-1.9
		l0.8-1.1l1.4-2.3l0.1-0.4l0.2-0.2l2.9-4.4l0.2-0.5l0.5-0.8l0.6-1.7l0.4-0.4l1.2-1.9l0.2-0.2l0.4-0.5l0.8-1.4l0.5-0.8L315.1,100.2z
		 M322.8,88.4l-0.2,0.1l0.1,0.1C322.8,88.6,322.8,88.5,322.8,88.4L322.8,88.4z M361.4,85.8l3-1.7l3.5-2.8l0.5,0.1l0.5-0.6h0.4
		l1.1-0.7l0.2-0.1l1.4-1.3v-0.4l0.6-0.1l0.8-0.8l0.4-0.7v-0.5l1.3-1l2.4-2.2l2.3-4.3l0.5-0.2v-0.7l0.4-0.2l0.4-1.2l0.7-2l-0.4-0.5
		l0.4-0.6l0.2-0.8l-0.2-1l-0.2-0.4l-0.1-1l-0.6-0.7h-0.5l-0.2-0.1l-0.2-0.2l-0.6-0.4l-0.1-0.1l-1.7-0.7H377l-0.7,0.1l-0.4,0.2
		l-0.5,0.5l-1.1,0.2l-0.4-0.2l-0.5-0.2l-4.1,0.8l-0.4,0.2l-0.2-0.1l-3.7,1.4l-1,0.7l-0.8,0.5h-0.8l-1.4,0.4c-2.3,1-4.4,2-6.4,3.1
		l-3.1,2.2l-1,0.4l-0.7,0.5l-3,1.8l-1.3,0.7l-1.4,0.5l-2.8,1.8H341l-0.4,0.5l-0.6,0.4l-0.7,0.4c-1.3,0.8-2.5,1.6-3.6,2.6l-2.9,2
		l-0.7,0.7l-1.7,1.6l-1,0.6l-0.5,0.6l-0.6,0.1c-0.1,0.1-0.1,0.2-0.2,0.2l-0.2,0.4l-0.4,0.6v0.2l-0.8,1l-0.7,1.3l-0.1,0.4l-0.5,0.7
		h-0.1l-0.6,1l-0.6,1.1l-0.2,0.4c0.2,0.2,0.4,0.4,0.7,0.6l1,0.5l1.1,0.5l0.8,0.2h0.5l1.2,0.4l1.6,0.4l0.7,0.4c3,0.3,6.1,0.3,9.1-0.2
		l2-0.6l1-0.1h1c3-0.7,5.9-1.5,8.8-2.6l0.4-0.4l1.6-0.4l3.5-1.6l0.6-0.6l1.1-0.4L361.4,85.8l0.3,0.1v-0.1H361.4z"/>
	<path class="st0" d="M384.3,79.6v0.6l-0.6,0.6l-0.4,0.5c-0.1,0-0.1,0.1-0.1,0.2v0.4l-0.5,0.7l-0.1,3c-0.2,0.8-0.1,1.6,0.2,2.4
		c0.7,0.8,0.4,0.8,3.4,1.8l2,0.5h1.6l1.8-0.2l8.8-1.9l1.7-0.7l4.7-1.6l1-0.6l0.5-0.2h0.2l7.2-3h0.5l0.8-0.5l1.1-0.2l4-1.4l0.5-0.1
		c4.3-1.8,6-2.9,10.1-4.8l2.6-1l0.1-0.2l0.7-0.4l2.2-0.7l2.3-1v-0.2h0.4l1.4-0.7l0.1-0.2l6.5-4l0.6-0.1c0.9-0.6,1.8-1.2,2.6-1.8
		c0.2-0.2,0.5-0.1,0.7,0.1l0,0v-0.1l0.5-0.4l0.5,0.1l0.4,1.1l-0.6,0.2l-1.1,0.4l-0.6,0.2l-2.8,1.9l-0.6,0.8H448l-0.5,0.2
		c-1.1,0.7-2.3,1.3-3.4,1.9l-0.1,0.1l-0.8,0.5l-0.5,0.4h-0.4l-3.8,1.9l-0.1,0.2l-0.5,0.1l-1,0.5l-0.2,0.1l-1.7,1.1l-4.6,1.9
		c-1.4,0.7-2.9,1.6-4.3,2.2l-0.4,0.4l-6,2.9l-0.5,0.4l-0.2-0.4l-1.3,0.8l-1.4,0.2l-1,0.5h-0.1c-1.6,0.7-3.1,1.3-4.7,1.9l-1.8,1
		l-3.7,1.8l-1,0.2l-1.4,0.2l-2,0.6l-1.2,0.1l-0.5,0.2l-0.5,0.4l-1.6,0.4h-0.2c-1.6,0.5-3.2,0.9-4.8,1.1l-0.4,0.4l-0.6,0.1h0.1
		l-2.4,0.5l-0.7-0.2l-1.3,0.5l-2.9-0.5l-2.6-1.3l-1.2-1.7l-0.6-1.6l-0.4-1.7v-2l0.1-0.2l-0.1-0.2v-0.8l0.8-3l0.8-1.4l1-2.2l0.7-1.2
		l0.2-0.2l0.4-1l0.7-0.6l0.4-0.8l0.7-1.1l0.4-0.4l1.3-0.6l0.5-0.6l0.8-0.4l1-0.7l0.2-0.1l1.2-1.1L391,68l0.8-1.2l0.5-0.5l0.6-0.7
		l0.5-0.4l0.7-0.2l0.2-0.4l0.6-0.6l1-0.4l0.6-0.1c2.6-2,5.4-3.9,8.3-5.6l0.2-0.2l1.2-0.8l1.6-0.6c0.1,0,0.2,0,0.2-0.1l1.4-1l0.8-0.5
		l0.4-0.1l1.7-0.2c1.3-0.5,2.6-1,4-1.3l1.1-0.6h1.2l0.7-0.2l0.4,0.2c0.9,0,1.9,0,2.8,0.1v-0.1l0.4-0.1l0.2,0.1l0.4-0.1l0.1-0.1
		l0.7,0.2v-0.1h0.1l-0.1-0.1l0.4,0.2h0.4l0.1,0.2h0.1l0.7,0.4l0.1,0.1c0.6,0.5,1.1,0.8,1.2,1.4l0.4,0.1l-0.1,0.2h0.1l-0.1,0.1v0.6
		l0.1,0.5l-0.2,0.8l-0.2,0.4V58l-0.5,1.8l-1,1.6l-1.2,1.2l-1.3,0.8l-1.1,0.7l-4.2,2.2l-0.6,0.5l-0.8,0.2c-2.8,1.9-5.7,3.6-8.8,5.2
		l-0.1,0.2l-3.5,1.7l-1.6,1.1l-3.1,1.3l-2.3,0.8l-3.2,0.6l-1.9,0.1h-0.8l-0.7-0.4l-0.2-0.6l0.2-0.4l0.7-1.3l1.7-1.6l1.6-0.6h1
		l0.7,0.2l1,0.2h1.6l1.4-0.2l1.6-0.6h0.5l0.2-0.4l3.5-1.2l3.2-1.6l1.6-0.8l0.6-0.7l1.6-0.6l0.2-0.5l1.8-0.6l0.5-0.5l1.6-1.2l5.4-4.6
		l0.5-0.6l0.2-0.8l0.2-0.4l0.6-1.8l-0.1-0.1l-0.1-0.2l-0.2-0.6l-0.6-0.7l-0.8-0.4l-1-0.1H420l-0.8,0.1l-0.5-0.1c-3,0.8-6,2-8.8,3.5
		l-1.4,0.7l-0.4,0.4l-0.6,0.5l-0.5-0.1c-0.1,0.1-0.1,0.1-0.2,0.1v0.2l-0.7,0.2l-0.2,0.2h-0.2l-2.6,1.4l-1.3,1.1l-0.8,0.8l-1.2,0.4
		l-0.5,0.2c-1.1,0.7-2,1.6-3.1,2.4l-0.6,0.7l-1.6,1.4l-0.8,0.8l-1.3,1.2l-1.7,1.7l-1.7,1.9l-0.4,0.4l-0.7,1.1l-0.8,1.2l-1.2,1.2
		L384.3,79.6z"/>
</g>
<g id="レイヤー_2_1_">
</g>
<g id="レイヤー_2_2_">
</g>
</svg>
