<?xml version="1.0" encoding="utf-8"?>
<!-- Generator: Adobe Illustrator 23.0.1, SVG Export Plug-In . SVG Version: 6.00 Build 0)  -->
<svg version="1.1" id="Layer_1" xmlns="http://www.w3.org/2000/svg" xmlns:xlink="http://www.w3.org/1999/xlink" x="0px" y="0px"
	 viewBox="0 0 401.5 137" style="enable-background:new 0 0 401.5 137;" xml:space="preserve">
<style type="text/css">
	.st0{fill:#2A2B2F;}
	.st1{fill:#FFFFFF;}
</style>
<g>
	<path class="st0" d="M156.3,30.5v8.3h3.9v5.5h-3.9v11.1h3.9V61h-7.5c-0.6,0-1.1-0.2-1.6-0.6c-0.4-0.4-0.7-0.9-0.7-1.5V44.4h-2.8
		v-5.5h2.8v-8.3h5.9L156.3,30.5L156.3,30.5z"/>
	<path class="st0" d="M164.6,41c0-0.6,0.2-1.1,0.6-1.6c0.4-0.4,1-0.6,1.6-0.6h18c0.6,0,1.1,0.2,1.5,0.6c0.4,0.4,0.6,1,0.6,1.6v9.4
		c0,0.6-0.2,1.1-0.6,1.6c-0.4,0.4-1,0.7-1.6,0.7h-14.4v2.8H187V61h-20.1c-0.6,0-1.1-0.2-1.6-0.6c-0.4-0.4-0.6-1-0.6-1.6L164.6,41
		L164.6,41z M170.4,44.4v2.8h10.9v-2.8H170.4z"/>
	<path class="st0" d="M209,58.8c0,0.6-0.2,1.1-0.7,1.6c-0.4,0.4-1,0.6-1.6,0.6h-12.2c-0.6,0-1.1-0.2-1.6-0.6c-0.4-0.4-0.6-1-0.6-1.6
		V41c0-0.6,0.2-1.1,0.6-1.6s1-0.7,1.6-0.7h12.2c0.6,0,1.1,0.2,1.6,0.7s0.7,1,0.7,1.6V30.5h5.7V61H209V58.8z M206.7,55.4
		c0.6,0,1.1-0.2,1.6-0.6c0.4-0.4,0.7-1,0.7-1.6v-8.9h-11v11.1H206.7z"/>
	<path class="st0" d="M236.6,58.8c0,0.6-0.2,1.1-0.7,1.6c-0.4,0.4-1,0.6-1.6,0.6h-12.2c-0.6,0-1.1-0.2-1.6-0.6
		c-0.4-0.4-0.6-1-0.6-1.6V41c0-0.6,0.2-1.1,0.6-1.6s1-0.7,1.6-0.7h12.2c0.6,0,1.1,0.2,1.6,0.7s0.7,1,0.7,1.6V30.5h5.7V61h-5.7V58.8z
		 M234.4,55.4c0.6,0,1.1-0.2,1.6-0.6c0.4-0.4,0.7-1,0.7-1.6v-8.9h-10.9v11.1H234.4z"/>
	<path class="st0" d="M255.8,52.7l5.1-13.8h6.1l-10.7,29c-0.2,0.4-0.5,0.8-0.9,1.1c-0.4,0.3-0.8,0.4-1.3,0.4h-4.4v-5.5h2l1.2-3.1
		L244.7,39h6L255.8,52.7z"/>
	<path class="st0" d="M269.1,41c0-0.6,0.2-1.1,0.6-1.6c0.4-0.4,1-0.6,1.6-0.6h17.9c0.6,0,1.1,0.2,1.6,0.6c0.4,0.4,0.6,1,0.6,1.6v4.7
		h-5.7v-1.4h-10.9v11.1h10.9V54h5.7v4.7c0,0.6-0.2,1.1-0.6,1.6c-0.4,0.4-1,0.6-1.6,0.6h-17.9c-0.6,0-1.1-0.2-1.6-0.6
		c-0.4-0.4-0.6-1-0.6-1.6V41z"/>
	<path class="st0" d="M319.2,58.8c0,0.6-0.2,1.1-0.6,1.6c-0.4,0.4-1,0.6-1.6,0.6h-18c-0.6,0-1.1-0.2-1.6-0.6c-0.4-0.4-0.6-1-0.6-1.6
		V41.1c0-0.6,0.2-1.2,0.6-1.6s1-0.7,1.6-0.7h18c0.6,0,1.1,0.2,1.6,0.7c0.4,0.4,0.6,1,0.6,1.6V58.8z M313.5,44.4h-10.9v11.1h10.9
		V44.4z"/>
	<path class="st0" d="M341.1,58.8c0,0.6-0.2,1.1-0.7,1.6c-0.4,0.4-1,0.6-1.6,0.6h-12.2c-0.6,0-1.1-0.2-1.6-0.6
		c-0.4-0.4-0.6-1-0.6-1.6V41c0-0.6,0.2-1.1,0.6-1.6s1-0.7,1.6-0.7h12.2c0.6,0,1.1,0.2,1.6,0.7s0.7,1,0.7,1.6V30.5h5.7V61h-5.7V58.8z
		 M338.9,55.4c0.6,0,1.1-0.2,1.6-0.6c0.4-0.4,0.7-1,0.7-1.6v-8.9h-10.9v11.1H338.9z"/>
	<path class="st0" d="M352.2,41c0-0.6,0.2-1.1,0.6-1.6c0.4-0.4,1-0.6,1.6-0.6h18c0.6,0,1.1,0.2,1.5,0.6c0.4,0.4,0.6,1,0.6,1.6v9.4
		c0,0.6-0.2,1.1-0.6,1.6c-0.4,0.4-1,0.7-1.6,0.7h-14.4v2.8h16.6V61h-20.1c-0.6,0-1.1-0.2-1.6-0.6c-0.4-0.4-0.6-1-0.6-1.6V41z
		 M357.9,44.4v2.8h10.9v-2.8H357.9z"/>
	<path class="st0" d="M385.6,61h-5.7V38.8h5.7V41c0-0.6,0.2-1.1,0.7-1.6c0.4-0.4,1-0.6,1.6-0.6h6.5c0.6,0,1.1,0.2,1.6,0.6
		c0.4,0.4,0.6,1,0.6,1.6v4.7h-5.7v-1.4h-3c-0.6,0-1.1,0.2-1.5,0.6c-0.4,0.4-0.6,1-0.6,1.6V61H385.6z"/>
	<path class="st0" d="M149.6,101.2c0-0.4,0.2-0.5,0.5-0.5h4.7c0.4,0,0.5,0.2,0.5,0.5v4.5c0,0.4-0.2,0.5-0.5,0.5h-4.7
		c-0.4,0-0.5-0.2-0.5-0.5V101.2z"/>
	<path class="st0" d="M160.6,86.3c0-0.6,0.2-1.1,0.6-1.6c0.4-0.4,1-0.6,1.6-0.6h17.9c0.6,0,1.1,0.2,1.6,0.6c0.4,0.4,0.6,1,0.6,1.6
		V91h-5.7v-1.4h-10.9v11.1h10.9v-1.4h5.7v4.7c0,0.6-0.2,1.1-0.6,1.6c-0.4,0.4-1,0.6-1.6,0.6h-17.9c-0.6,0-1.1-0.2-1.6-0.6
		c-0.4-0.4-0.6-1-0.6-1.6V86.3z"/>
	<path class="st0" d="M210.6,104c0,0.6-0.2,1.1-0.6,1.6c-0.4,0.4-1,0.6-1.6,0.6h-17.9c-0.6,0-1.1-0.2-1.6-0.6
		c-0.4-0.4-0.6-1-0.6-1.6V86.3c0-0.6,0.2-1.2,0.6-1.6c0.4-0.4,1-0.7,1.6-0.7h17.9c0.6,0,1.1,0.2,1.6,0.7c0.4,0.4,0.6,1,0.6,1.6V104z
		 M204.9,89.6H194v11.1h10.9V89.6z"/>
	<path class="st0" d="M236.5,106.2h-5.7V89.6H224c-0.6,0-1.1,0.2-1.6,0.6s-0.7,1-0.7,1.6v14.4H216V84h5.7v2.2c0-0.6,0.2-1.1,0.7-1.6
		c0.4-0.4,1-0.6,1.6-0.6h9.9c0.6,0,1.1,0.2,1.6,0.7c0.4,0.4,0.6,1,0.6,1.6c0-0.6,0.2-1.1,0.7-1.6c0.4-0.4,1-0.6,1.6-0.6H249
		c0.6,0,1.1,0.2,1.6,0.6c0.4,0.4,0.7,1,0.7,1.6v20h-5.7V89.6h-6.8c-0.6,0-1.1,0.2-1.6,0.6c-0.4,0.4-0.6,1-0.6,1.6L236.5,106.2
		L236.5,106.2z"/>
</g>
<circle class="st0" cx="68.9" cy="68.4" r="63.2"/>
<path class="st1" d="M53.7,62.4v11.7h5.5v7.8h-5.5v15.6h5.5v7.8H48.7c-0.8,0-1.6-0.3-2.2-0.9c-0.6-0.6-0.9-1.3-0.9-2.2V81.9h-3.9
	v-7.8h3.9V62.4H53.7z"/>
<path class="st1" d="M85.2,77.2c0-0.9,0.3-1.6,0.9-2.2s1.4-0.9,2.2-0.9h25.4c0.9,0,1.6,0.3,2.2,0.9s0.9,1.3,0.9,2.2v6.6h-8.1v-1.9
	H93.3v15.6h15.5v-1.9h8.1v6.6c0,0.9-0.3,1.6-0.9,2.2s-1.4,0.9-2.2,0.9H88.3c-0.9,0-1.6-0.3-2.2-0.9s-0.9-1.3-0.9-2.2
	C85.2,102.2,85.2,77.2,85.2,77.2z"/>
</svg>
