<?xml version="1.0" encoding="utf-8"?>
<!-- Generator: Adobe Illustrator 24.3.0, SVG Export Plug-In . SVG Version: 6.00 Build 0)  -->
<svg version="1.1" id="Layer_1" xmlns="http://www.w3.org/2000/svg" xmlns:xlink="http://www.w3.org/1999/xlink" x="0px" y="0px"
	 viewBox="0 0 85 60" style="enable-background:new 0 0 85 60;" xml:space="preserve">
<style type="text/css">
	.st0{fill:#07407E;}
	.st1{fill-rule:evenodd;clip-rule:evenodd;fill:#757679;}
	.st2{fill-rule:evenodd;clip-rule:evenodd;fill:#92C83E;}
	.st3{fill-rule:evenodd;clip-rule:evenodd;fill:#DC1F26;}
	.st4{fill:#DC1F26;}
	.st5{fill-rule:evenodd;clip-rule:evenodd;fill:#C0DC8F;}
	.st6{fill:#C0DC8F;}
	.st7{fill:#BAD982;}
	.st8{fill-rule:evenodd;clip-rule:evenodd;fill:#EFF5D9;}
</style>
<path class="st0" d="M5.1,54L5.1,54h-1C1.8,54,0,52.2,0,49.9V5.2c0-2.3,1.8-4.1,4.1-4.1h47c2.3,0,4.1,2,4.1,4.2v44.6
	c0,2.3-1.8,4.1-4.1,4.1H30c-1.1,0-3.2-0.7-3.7-3.1c-1.1-4-4.8-6.8-8.9-6.8c-4.3,0-8.1,3-9.1,7.2C8,53.2,6.5,54,5.1,54z M4.1,4.2
	C3.5,4.2,3,4.6,3,5.2v44.7C3,50.5,3.5,51,4.1,51h1l0.1-0.3c1.3-5.6,6.3-9.6,12-9.6c5.6,0,10.5,3.8,11.9,9.1c0.2,0.7,0.7,0.8,0.8,0.8
	H51c0.6,0,1.1-0.5,1.1-1.1V5.3c0-0.6-0.5-1.1-1.1-1.1C51,4.2,4.1,4.2,4.1,4.2z M84.9,35.8c0,0-0.1-2.1-0.3-3.1
	c-0.2-0.9-1.1-2.6-1.1-2.6l-7.3-13.6c-1-1.5-3.1-2.7-4.6-2.7H60.8c-1.4,0-2.6,1.2-2.6,2.6v33.5c0,1.4,1.2,2.6,2.6,2.6h0.6
	c0,0,0.9-0.1,1.3-1.3c1-3.9,4.5-6.9,8.7-6.9c4.1,0,7.6,2.8,8.7,6.6c0.4,1.6,2.2,1.6,2.2,1.6c1.4,0,2.6-1.2,2.6-2.6L84.9,35.8z
	 M78.3,32.3h-13c-1.1,0-2-0.9-2-2V20.1c0-1.1,0.9-2,2-2h4.4c2.5,0,4.1,2,4.6,3l5.1,9.4C79.9,31.5,79.4,32.3,78.3,32.3z"/>
<path id="Path_20" class="st1" d="M29.6,13.8c-0.6,0.4-1.3,0.4-1.8-0.1c0,0-0.8-0.6-0.5-2.1c0.1-0.6,0.3-1.1,0.6-1.6
	C28,9.7,28.1,9.3,28,8.9c0,0,1.9,0.7,2.9,2c1,1.2,0.5,2.1,0.5,2.1c-0.2,0.5-0.7,0.8-1.3,0.8c0,0,0.1-1.5-1.1-3.4
	c0,0,0.8,1.8,0.7,2.8c0.1,0.8,0,1.5-0.2,2.3c0,0-0.1,0.4-0.4,0.5c0,0-0.3-0.1-0.2-0.3c0.1-0.2,0.3-0.4,0.3-0.6
	C29.5,14.6,29.6,14.2,29.6,13.8z"/>
<path id="Path_21" class="st2" d="M32.8,15.7c0,0-2.7-0.9-2.2-3.8c0,0,0.3-2.3,3.6-3.7c1.3-0.4,2.6-0.7,4-0.9c0.9-0.1,1.7-0.4,2.4-1
	c0,0,1,4.7-0.2,8.3s-3.5,3.8-3.5,3.8s-2.1,0.4-3.2-1.5c0,0,3.2-1.7,5.5-6.6c0,0-2.6,3.8-4.7,5c0,0-1.5,1.3-4.8,2.4
	c0,0-1,0.4-1.4-0.2c0,0-0.2-0.7,0.4-0.7c0.5,0.1,1,0.1,1.6,0C30.1,16.8,32.1,16.3,32.8,15.7z"/>
<path id="Path_22" class="st2" d="M38.9,27.9c0.7-2.6,0.4-5.3-0.7-7.7c-1-2.4-2.9-4.1-5.1-5.5c-3.4-2.1-7.1-2.6-10.9-1.5
	c-5.8,1.7-9.2,6.1-9.2,11.9c0,3.1,1.5,5.2,2.1,7c0.2,0.6,2.7,6.8,2.7,6.8l0,0C18,37,16,25.2,17.4,22.4c1.2-2.4,3.1-3.6,5.6-4.4
	c2.9-0.9,5.5-0.3,7.8,1.6c2.6,2.1,2.4,4.2,2.2,5.6c-0.1,0.9-1.4,3-2.8,4.1c-0.7,0.5-2.4,1.3-3.2,1.3c-1.5,0.6,0.9,3,2.8,4.2
	c1,0.6,3.3,1.9,3.3,1.9C34.7,35,38.1,30.7,38.9,27.9z"/>
<path id="Path_23" class="st3" d="M23.8,28.7c-0.1-1,0-1.1,1-0.7c1.6,0.6,3,0.3,4-0.8c1.3-1.5,1.5-2.9,0.7-4.5
	c-1.4-2.9-5.7-3.2-8-0.5c-2,2.3-2.2,5-1.3,7.8C22,35.1,31.6,41,36.6,41.5C31.9,39.7,24.1,31.1,23.8,28.7z"/>
<path id="Path_24" class="st4" d="M20.9,23c0,0,1.6,11.5,0.8,18.1c-0.1-0.7-1.5-10.2-1.7-12.1C19.6,25.9,20.5,24.1,20.9,23z"/>
<g id="Group_1" transform="translate(225.265 202.942)">
	<path id="Path_25" class="st5" d="M-186.2-192.6c0,0-4.3,4.6-4.9,4.7l0.3,0.2C-190.8-187.7-189-188.6-186.2-192.6z"/>
	<path id="Path_26" class="st5" d="M-188-190.7c-0.4-0.9-0.5-1.9-0.1-2.9c0,0,0,1.6,0.5,2.4L-188-190.7z"/>
	<path id="Path_27" class="st5" d="M-189.4-189.4c-0.4-1.1-0.4-2.2,0-3.3c0,0-0.1,1.9,0.4,2.8L-189.4-189.4z"/>
	<path id="Path_28" class="st5" d="M-190.6-188.1c-0.4-1.1-0.5-2.2-0.1-3.3c0,0-0.1,1.9,0.5,2.9L-190.6-188.1z"/>
	<path id="Path_29" class="st5" d="M-187.5-190.3c0,0,0.8,0.1,1.8-1.3c0,0-0.8,0.8-1.5,0.8L-187.5-190.3z"/>
	<path id="Path_30" class="st5" d="M-188.6-188.8c0.9,0,1.6-0.4,2.1-1.2c0,0-0.9,0.9-1.8,0.8L-188.6-188.8z"/>
	<path id="Path_31" class="st5" d="M-189.9-187.4c1.4,0.2,2.9,0,4.2-0.5c0,0-2.4,0.4-3.7,0L-189.9-187.4z"/>
	<circle id="Ellipse_1" class="st6" cx="-193.5" cy="-193.2" r="0.5"/>
	<circle id="Ellipse_2" class="st6" cx="-192.2" cy="-190.6" r="0.5"/>
	<circle id="Ellipse_3" class="st6" cx="-185.5" cy="-190.1" r="0.5"/>
	<circle id="Ellipse_4" class="st6" cx="-186.7" cy="-194.5" r="0.5"/>
</g>
<circle id="Ellipse_5" class="st7" cx="28.4" cy="11.4" r="0.5"/>
<path id="Path_32" class="st8" d="M31.7,9.5c0,0,0.4,0,0.4,0.4c0.1-0.2,0-0.4-0.2-0.5c0,0-0.1,0-0.1,0L31.7,9.5z"/>
<path id="Path_33" class="st8" d="M38.6,8.2c0,0,0.4,0,0.4,0.4c0.1-0.2,0-0.4-0.2-0.5c0,0-0.1,0-0.1,0L38.6,8.2z"/>
<path id="Path_34" class="st8" d="M33,12.1c0,0,0.4,0,0.4,0.4c0.1-0.2,0-0.4-0.2-0.5c0,0-0.1,0-0.1,0L33,12.1z"/>
<path id="Path_35" class="st8" d="M39.8,12.7c0,0,0.4,0,0.4,0.4c0.1-0.2,0-0.4-0.2-0.5c0,0-0.1,0-0.1,0L39.8,12.7z"/>
<path id="Path_36" class="st8" d="M28.2,11.3c0,0,0.2-0.3,0.5-0.1c-0.1-0.2-0.4-0.2-0.5-0.1c0,0,0,0-0.1,0.1L28.2,11.3z"/>
</svg>
