<!--?xml version="1.0" encoding="utf-8"?-->
<!-- Generator: Adobe Illustrator 24.3.0, SVG Export Plug-In . SVG Version: 6.00 Build 0)  -->
<svg version="1.1" id="Group_124" xmlns:cc="http://creativecommons.org/ns#" xmlns:dc="http://purl.org/dc/elements/1.1/" xmlns:rdf="http://www.w3.org/1999/02/22-rdf-syntax-ns#" xmlns:svg="http://www.w3.org/2000/svg" xmlns="http://www.w3.org/2000/svg" xmlns:xlink="http://www.w3.org/1999/xlink" x="0px" y="0px" viewBox="0 0 674.7 187.2" style="" xml:space="preserve">
<style type="text/css">
	.st0{fill:none;stroke:#052026;stroke-width:6;stroke-miterlimit:10;}
</style>
<path id="Path_1353" class="st0 TSTKqPFx_0" d="M61.6,125.7c-0.7,0.9-1.4,1.8-2.3,2.5c-6.2,5.3-12.9,9.8-20.6,12.2c-1.5,0.4-3,0.8-4.5,1
	c-5.1,0.8-8.7-1.2-10.8-5.5c-0.9-1.8-1.4-3.8-2.2-6c-0.9,1-1.7,1.8-2.5,2.6c-3.3,3.7-7.1,6.8-11.4,9.1c-1.3,0.7-2.6,1.2-4,1.5
	c-2.5,0.4-3.9-1.5-3.1-4c0.2-0.8,0.6-1.5,1-2.1c3.3-4.9,7.6-9.2,12.6-12.4c2.1-1.4,4.4-2.3,6.9-1.8c2.6,0.5,3.5,1.8,3.7,4.5
	c0.1,2.4,0.5,4.8,1.3,7.1c1.3,3.6,4.3,5.2,8.3,4.3c9.6-2.2,18.2-7.4,24.7-14.8c1.3-1.5,2.3-2.5,3.4-1.9
	C63.2,122.8,62.9,124,61.6,125.7z M17.1,128.3c-4.7,2-8.2,5.5-11.3,9.6C10.2,135.6,14.1,132.3,17.1,128.3L17.1,128.3z"></path>
<path id="Path_1354" class="st0 TSTKqPFx_1" d="M97.1,137.7c-0.8,0.8-1.5,1.6-2.3,2.4c-3.2,3-16.2,18.9-29.9,25.2c-5.2,2.2-9.5,0.5-10.5-4.8
	c-0.6-3.4-0.7-6.8-0.2-10.2c0.6-4.9,4.1-18.8,5.2-23.7c0.4-1.2,0.4-2.5-0.1-3.7c-1-2.2-0.2-4.8,1.8-6.2c1.7-1.1,2.1-2.6,2.7-4.1
	C70.5,93.1,79,74.3,89.2,56.4c3.5-6,7.4-11.8,11.3-17.6c1.3-1.9,2.8-3.6,4.5-5.2c1.7-1.7,3.6-3.1,5.9-2.2c2.5,0.9,2.7,3.3,2.3,5.6
	c-0.4,3-1.1,5.9-2,8.7c-2.9,8.8-6.5,17.3-10.8,25.5c-8.2,16.1-17.9,31.3-29,45.5c-1.8,2.3-4.1,4.3-6.1,6.5c-0.7,0.7-1.2,1.6-1.6,2.5
	c-1.8,5.9-5.4,20.9-5.8,26.9c-0.1,2,0,4.1,0.4,6c0.6,2.9,2.4,3.7,5.3,2.3c13.8-6.5,34.1-28,37.7-39c8.3-29.1,18.9-55,32.4-82.6
	c2.5-5.2,5.6-10.1,8.6-15.1c1-1.6,2.3-3.1,3.9-4.3c2.3-1.9,4.9-1.3,5.6,1.3c0.5,1.8,0.7,3.8,0.3,5.7c-0.7,4.4-1.8,8.7-3.2,12.9
	c-8.5,23.8-18.5,47.1-31.3,69.4c-4,6.9-8.7,13.4-13,20.1c-1,1.5-1.8,3.1-2.2,4.8c-2.6,10.5-4.4,21.1-5.2,31.9c-0.1,4,0,7.9,0.4,11.9
	c0.2,2.4,1.4,4,4.2,4.1c1.9,0,2.6,1.2,2.3,2.6c-0.4,1.5-1.7,2.5-3.2,2.5c-3.2,0.2-5.8-1-6.7-3.9c-1-2.9-1.6-5.9-1.7-8.9
	c-0.4-7.4,0.8-14.9,2.1-22.4c0.7-4,2.3-10,3.1-14C97.4,137.9,97.3,137.8,97.1,137.7z M108,38c-0.2-0.1-0.4-0.2-0.6-0.3
	c-0.8,0.6-1.5,1.3-2.1,2.1c-3.1,4.3-6.3,8.5-9,12.9c-11,18-20.1,37-27.2,56.8c-0.3,0.7-0.4,1.4-0.6,2.1c0.8-0.5,1.5-1.1,2-1.9
	c8.1-11.1,15.5-22.8,22.1-35c5.3-9.8,9.9-20.1,13.6-30.6C106.9,42.2,107.4,40.1,108,38z M147.5,25.5c-0.3-0.1-0.6-0.2-0.9-0.4
	c-0.9,1-1.7,2.1-2.4,3.2c-2.4,4-4.9,8-7,12.1c-11.7,23.1-21.4,47.2-29,71.9c-0.3,0.9-0.5,1.8-0.7,2.7c1-0.8,1.8-1.8,2.4-3
	c6.7-11.3,12.7-23,17.9-35.1c5.9-13.9,11.5-27.9,17.1-41.9C145.9,31.9,146.8,28.7,147.5,25.5L147.5,25.5z"></path>
<path id="Path_1355" class="st0 TSTKqPFx_2" d="M334.3,32.4c0.1,1.4-1.1,2.5-2.9,2.6c-2.4,0.1-4.7,0.1-7.1,0.2c-13.3,0.4-26.6,0.4-39.9,1.5
	c-12,0.9-24.1,2.8-36.2,4.8c-12.2,2-24.3,4.7-36.4,7.1c-1.8,0.2-3.4,1.4-4,3.1c-9.9,25.1-19.5,50.3-25.5,76.3
	c-1.2,5.3-2,10.6-2.7,15.9c-0.2,2.3-0.1,4.7,0.3,7c0.6,3.4,2.2,4.1,5.5,2.3c2-1.1,3.9-2.4,5.6-3.9c3.8-3.3,7.6-6.6,11.1-10.2
	c9-9.3,17.9-18.7,26.7-28.3c2.5-2.7,4.5-5.7,6.8-8.6c0.3-0.4,0.5-0.9,0.8-1.1c0.9-0.4,1.3-0.9,2-0.7c1.2,0.3,1.4,1.3,1,2.4
	c-1.4,2-2.9,3.8-4.5,5.6c-12.1,12.9-23.1,25.1-36.1,37c-2.6,2.4-5.3,4.7-8.1,6.9c-1.5,1.2-3.1,2.2-4.9,3.1c-4.4,2.2-7.4,1-8.6-3.4
	c-1-3.8-0.8-7.8-0.3-11.8c1.4-11.7,4.4-23.2,7.8-34.6c5-17.2,11.3-34.2,17.5-51.2c0.4-1.1,0.8-2.3,1.3-3.9c-2.6,0.5-4.7,0.9-6.8,1.3
	c-9.4,2-18.9,4-28.3,5.9c-1.8,0.4-3.6,0.5-5.5,0.5c-2.5,0-3.8-1.2-4-3.1c0-2.4,1.2-4.6,3.1-6.1c0.9-0.7,2.2-0.5,2.9,0.3
	c0.8,0.8,0.9,2.1,0.1,2.9c-0.8,0.8-1.6,1.5-2.5,2.1c1.9,1.7,3.8,1.3,5.5,1.2c2.4-0.1,4.8-0.4,7.1-0.8c9.6-1.7,19.1-3.6,28.7-5.4
	c1.3-2.9,2.3-5.7,3.6-8.3c0.6-1.3,1.4-2.6,2.4-3.7c1.5-1.6,3.8-1.5,4.8-0.1c1,1.4,0.6,3-1.4,4.4c-2.2,1.5-2.7,3.7-4,6.3
	c4.4-0.9,8.3-1.7,12.2-2.4c8.7-1.7,17.4-3.4,26.1-5c18.1-3.4,36.2-5.3,54.3-7.1c7.7-0.8,15.3-1.3,22.9-1.9c2.2-0.2,4.3-0.4,6.5-0.7
	C333.3,30.7,334.2,31.2,334.3,32.4z"></path>
<path id="Path_1356" class="st0 TSTKqPFx_3" d="M235.5,125.6c1.3-1.6,2-2.6,2.8-3.6c4.9-6,9.7-12.2,14.8-18.1c2.5-2.7,5.2-5.2,8-7.6
	c0.7-0.6,1.4-1.1,2.3-1.5c4-2.2,6.8-1.3,7.8,2.8c0.5,3,0.9,6.1,1.1,9.1c0.1,1.7,0.4,3.4,0.7,5c0.9,3.3,3,4.1,6.4,2.7
	c1.7-0.7,3.2-1.6,4.7-2.6c8-5.3,15.6-11.1,22.8-17.5c0.8-0.8,1.7-1.5,2.7-2.1c0.8-0.3,2.8,0.3-0.5,3.5c-7.7,6.1-14.2,12.8-22.7,17.7
	c-2.4,1.4-5,2.5-7.7,3.3c-3.5,1-5.8-0.3-7-3.5c-0.6-1.9-1-3.8-1.3-5.8c-0.4-2.5-0.6-5.1-1.2-7.5c-0.9-3.8-2.2-4.1-5.6-1.4
	c-0.9,0.7-1.8,1.5-2.6,2.3c-8.1,7.9-14.9,16.8-21.3,26c-1.1,1.5-1,3.7-1.6,5.6c-0.2,1-0.7,1.9-1.3,2.6c-2.7,2.8-6.6,1.9-7-1.7
	c-0.2-2-0.1-4.1,0.3-6.1c1.7-9.3,2.8-11.4,6.1-20.3c0.7-1.8,1.5-3.4,1-5.4c0-1,0.5-1.9,1.2-2.5c1.3-1.2,2.3-2.8,2.9-4.5
	c10.7-25.2,23.9-49.3,39.4-71.9c4-5.7,8.3-11.2,12.6-16.7c1.4-1.8,3.1-3.3,5-4.6c3.2-2.2,6-1.1,6.1,2.5c0.1,2.5-0.2,5-1,7.4
	c-1.3,4.3-3,8.5-5,12.5c-12.9,26.2-29.6,50.3-49.5,71.6c-1.3,1.1-2.2,2.6-2.8,4.2c-0.2,0.9-1.6,1.7-2.5,2.5c-0.7,0.7-1.8,1.3-2,2
	c-2.9,8.8-3.3,10.8-6.1,19.6C235.5,124.2,235.5,124.9,235.5,125.6z M300.5,4.3c-0.2-0.1-0.4-0.2-0.6-0.3c-1.1,0.8-2.1,1.7-3,2.6
	c-2.2,2.5-4.5,4.9-6.4,7.6c-16.9,22.9-31.1,47.6-42.4,73.7c-0.2,0.6-0.4,1.3-0.5,2c1.2-0.8,2.3-1.7,3.2-2.8
	c17.8-20.7,32.8-43.6,44.9-68c1.5-3.3,2.9-6.6,4-10C300,7.5,300.3,5.9,300.5,4.3L300.5,4.3z"></path>
<path id="Path_1357" class="st0 TSTKqPFx_4" d="M351.7,93.2c-0.8,0.8-20.5,15.1-33.3,17.6c-2.9,0.6-5.9,0.6-8.9,0.1c-3.5-0.6-5.4-2.9-5.4-6.9
	c-0.1-2.3,0.5-4.6,1.8-6.5c1.8-2.9,3.5-5.9,6.1-8.2c1.4-1.2,2.9-2.2,4.5-2.9c2.1-1,4.5-0.1,5.5,2c0.7,1.5,0.4,3.2-0.6,4.5
	c-1.2,1.7-2.6,3.2-4.3,4.4c-3.5,2.5-7.2,4.6-11.1,7.1c0.2,3.2,1.3,4.6,4.5,5.2c4.1,0.8,8.2-0.2,12.1-1.7c9.7-3.8,18.7-9.2,26.8-15.8
	c1.2-1.1,2.3-2.3,3.3-3.5c1.5-1.6,2.2-2.1,3.2-1.2S353.8,91.5,351.7,93.2z M309.3,97.4c3.4-1.3,6.3-3.7,8.3-6.8
	C313.7,91.4,311.4,94.2,309.3,97.4L309.3,97.4z"></path>
<path id="Path_1358" class="st0 TSTKqPFx_5" d="M561.5,4.5c0.1,1.4-1.1,2.5-2.9,2.6c-2.4,0.1-4.7,0.1-7.1,0.2c-13.3,0.4-26.6,0.4-39.9,1.5
	c-12,1-24.1,2.8-36.2,4.8c-12.2,2-24.3,4.7-36.4,7.1c-1.8,0.2-3.4,1.4-4,3.1c-9.9,25.1-19.5,50.3-25.5,76.3
	c-1.2,5.3-2,10.6-2.7,15.9c-0.2,2.3-0.2,4.7,0.3,7c0.6,3.4,2.2,4.1,5.5,2.3c2-1.1,3.9-2.4,5.6-3.9c3.8-3.3,7.6-6.6,11.1-10.2
	c9-9.3,17.9-18.7,26.7-28.3c2.5-2.7,4.6-5.7,6.8-8.6c0.3-0.4,0.5-0.9,0.8-1.1c0.9-0.4,1.3-0.9,2-0.7c1.2,0.3,1.4,1.3,1,2.4
	c-1.4,2-2.9,3.8-4.5,5.6c-12.1,12.9-23.1,25.1-36.1,37c-2.6,2.4-5.3,4.7-8.1,6.9c-1.5,1.2-3.1,2.2-4.9,3.1c-4.4,2.2-7.4,1-8.6-3.4
	c-1-3.8-0.8-7.8-0.3-11.9c1.4-11.7,4.4-23.2,7.8-34.6c5-17.2,11.3-34.2,17.5-51.1c0.4-1.1,0.8-2.3,1.3-3.9c-2.6,0.5-4.7,0.9-6.8,1.3
	c-9.4,2-18.9,4-28.3,5.9c-1.8,0.4-3.6,0.5-5.5,0.5c-2.5,0-3.8-1.2-4-3.1c0-2.4,1.2-4.6,3.1-6.1c0.9-0.7,2.2-0.5,2.9,0.3
	c0.8,0.8,0.9,2.1,0.1,2.9c-0.8,0.8-1.6,1.5-2.5,2.1c1.9,1.7,3.8,1.3,5.5,1.2c2.4-0.1,4.8-0.4,7.1-0.8c9.6-1.7,19.1-3.6,28.7-5.4
	c1.3-2.9,2.3-5.7,3.6-8.3c0.6-1.3,1.4-2.6,2.4-3.7c1.5-1.6,3.8-1.5,4.8-0.1s0.6,3-1.4,4.4c-2.2,1.5-2.7,3.7-4,6.3
	c4.4-0.9,8.3-1.7,12.2-2.4c8.7-1.7,17.4-3.4,26.1-5c18.1-3.4,36.2-5.3,54.3-7.1c7.7-0.8,15.3-1.3,22.9-1.9c2.1-0.2,4.3-0.4,6.5-0.7
	C560.5,2.8,561.5,3.3,561.5,4.5z"></path>
<path id="Path_1359" class="st0 TSTKqPFx_6" d="M516.7,71.3c-3.6,3.1-26.4,23.4-40.3,28c-1.3,0.4-2.6,0.6-4.6,1.1c-1.9-0.1-3.7-0.3-5.5-0.7
	c-3.4-0.8-6-3.6-6.4-7.1c-0.9-6.3,0.9-12.5,3.4-18.6c0.1-0.2,0.2-0.4,0.4-0.6c1.2-1.6,3-2.2,4.2-1.4c1.2,0.8,1.4,2.4,0.1,4
	c-2.8,3.5-3.8,7.4-4.6,11.4c-0.1,0.6-0.2,1.3-0.2,1.9c-0.2,5,2.6,8,7.6,7.6c2.3-0.2,4.6-0.7,6.7-1.6c12.5-4.8,24.8-15.8,35.2-25.6
	c0.8-0.7,1.6-1.2,2.5-1.7c1.1-0.6,1.7-1,2.3,0C518.2,69,517.6,70.3,516.7,71.3z M472.2,56.9c-1.1-1.2-0.9-2.7-0.2-4.2
	c0.7-1.7,1.5-3.3,3.4-3.8c1.2-0.3,2.3,0.5,2.6,1.6c0.1,0.4,0.1,0.7,0,1.1c-0.3,1.4-0.7,2.8-1.2,4.1
	C475.9,57.7,473.6,58.3,472.2,56.9z"></path>
<path id="Path_1360" class="st0 TSTKqPFx_7" d="M573.4,39c-1.6,1.3-3.2,2.7-4.7,4.2c-5.1,6-10.1,12.1-15.1,18.2c-2.5,3.1-4.8,6.4-7.3,9.6
	c-0.9,1.1-1.9,2-3,2.7c-1.7,1.1-3.3,0.4-3.4-1.5c-0.1-1.4,0-2.8,0.3-4.2c0.4-3.1,1.1-6.3,1.4-9.4c0.1-1.8,0.1-3.5,0-5.3
	c-1.2,1.1-2.1,1.8-2.8,2.6c-7.1,7.6-13,16.2-17.6,25.6c-0.5,1.2-0.8,2.5-0.9,3.8c0,1.6-1.1,3.1-2.7,3.4c-0.7,0.2-1.5,0.5-2.2,0.8
	c-2.7,1.1-4.5,0.1-4.5-2.7c0-2.1,0.3-4.2,0.9-6.2c2.1-8.1,4-12.5,3.4-15.7c-0.2-1.5,0.7-3,2.1-3.5c0.9-0.4,2.4-0.4,2.9,0.1
	c0.7,0.9,1,2,0.8,3.1c-0.2,1.2-1.2,2.5-1.5,3.7c-2.1,8.3,0.3-1.2-1.8,7.1c-0.1,0.5-0.1,1,0.2,1.5c0.5-0.8,1-1.5,1.5-2.3
	c4.1-7.3,8.9-14.1,14.6-20.3c1.5-1.7,3.2-3.2,5.1-4.6c3.3-2.2,6.2-1,6.4,2.7c0,2.6-0.3,5.2-0.7,7.8c-0.5,2.8-0.9,5.7-1,8.5
	c1.2-1.6,2.4-3.3,3.6-4.9c4.1-5.5,8-11.2,12.2-16.5c2.6-3.2,5.5-6.1,8.5-8.9c1.8-1.7,4-3.3,6.5-2.4c2.6,1,2.6,3.6,2.5,5.9
	c-0.3,5.6-0.9,11.3-1.3,16.9c-0.5,6.1-0.8,12.2,0.3,18c0.4,2,1,4,1.9,5.9c1.1,2.7,4.2,4.2,7,3.3c2.4-0.5,4.7-1.4,6.8-2.5
	c3.7-2.2,7.4-4.5,10.8-7.1c7-5,13.6-10.5,19.7-16.5c1.4-1.4,5.6-7.3,7-6.2c1.2,0.8,0.3,2.1-0.7,3.8c-2.6,4.1-23.7,22-36.1,28.6
	c-2.1,1.1-4.3,1.9-6.6,2.4c-4.7,1-8.4-0.5-10.1-4.6c-1.2-3.1-2.1-6.3-2.5-9.7c-1.1-7.3-0.1-14.8,0.3-22.3c0.2-2.9,0.3-5.8,0.3-8.7
	C574,41.7,573.8,40.4,573.4,39z"></path>
<path id="Path_1361" class="st0 TSTKqPFx_8" d="M670.2,54.1c-0.8,0.8-20.5,15.1-33.3,17.6c-2.9,0.6-5.9,0.6-8.9,0.1c-3.5-0.6-5.4-2.9-5.4-6.9
	c-0.1-2.3,0.5-4.6,1.8-6.5c1.8-2.9,3.5-5.9,6.1-8.2c1.4-1.2,2.9-2.2,4.5-2.9c2.1-1,4.5-0.1,5.5,2c0.7,1.5,0.4,3.2-0.6,4.4
	c-1.2,1.7-2.6,3.2-4.3,4.4c-3.5,2.5-7.2,4.6-11.1,7.1c0.2,3.2,1.3,4.6,4.5,5.2c4.1,0.8,8.2-0.2,12.1-1.7c9.7-3.8,18.7-9.2,26.8-15.8
	c1.2-1.1,2.3-2.3,3.3-3.5c1.5-1.6,2.2-2.1,3.2-1.2S672.4,52.4,670.2,54.1z M627.8,58.3c3.4-1.3,6.3-3.7,8.3-6.8
	C632.2,52.3,629.9,55.1,627.8,58.3L627.8,58.3z"></path>
<style data-made-with="vivus-instant">.TSTKqPFx_0{stroke-dasharray:200 202;stroke-dashoffset:201;animation:TSTKqPFx_draw 84ms linear 0ms forwards;}.TSTKqPFx_1{stroke-dasharray:1133 1135;stroke-dashoffset:1134;animation:TSTKqPFx_draw 476ms linear 84ms forwards;}.TSTKqPFx_2{stroke-dasharray:778 780;stroke-dashoffset:779;animation:TSTKqPFx_draw 327ms linear 561ms forwards;}.TSTKqPFx_3{stroke-dasharray:746 748;stroke-dashoffset:747;animation:TSTKqPFx_draw 313ms linear 888ms forwards;}.TSTKqPFx_4{stroke-dasharray:200 202;stroke-dashoffset:201;animation:TSTKqPFx_draw 84ms linear 1202ms forwards;}.TSTKqPFx_5{stroke-dasharray:778 780;stroke-dashoffset:779;animation:TSTKqPFx_draw 327ms linear 1287ms forwards;}.TSTKqPFx_6{stroke-dasharray:211 213;stroke-dashoffset:212;animation:TSTKqPFx_draw 89ms linear 1614ms forwards;}.TSTKqPFx_7{stroke-dasharray:503 505;stroke-dashoffset:504;animation:TSTKqPFx_draw 211ms linear 1703ms forwards;}.TSTKqPFx_8{stroke-dasharray:200 202;stroke-dashoffset:201;animation:TSTKqPFx_draw 84ms linear 1915ms forwards;}@keyframes TSTKqPFx_draw{100%{stroke-dashoffset:0;}}@keyframes TSTKqPFx_fade{0%{stroke-opacity:1;}93.54838709677419%{stroke-opacity:1;}100%{stroke-opacity:0;}}</style></svg>
