<?xml version="1.0" encoding="utf-8"?>
<!-- Generator: Adobe Illustrator 23.0.1, SVG Export Plug-In . SVG Version: 6.00 Build 0)  -->
<svg version="1.1" id="Layer_1" xmlns="http://www.w3.org/2000/svg" xmlns:xlink="http://www.w3.org/1999/xlink" x="0px" y="0px"
	 viewBox="0 0 865.9 385.7" style="enable-background:new 0 0 865.9 385.7;" xml:space="preserve">
<style type="text/css">
	.st0{fill:#FFFFFF;}
	.st1{fill-rule:evenodd;clip-rule:evenodd;fill:#FFFFFF;}
</style>
<g id="APHA">
	<path class="st0" d="M376.1,258.5c-7.3,1.9-14.5,2.9-21.7,2.9c-10.8,0-19.7-2.3-26.7-6.9c-8.8,3.3-16.6,5-23.4,5
		c-6.1,0-11.4-1.4-16.1-4.1c-1.7-1-2.6-3.6-2.6-8c0-5.3,1.5-10.4,4.4-15.2c3.8-6.1,9.3-10.4,16.4-13.2c6.5-2.5,13-3.7,19.3-3.7
		c5.8,0,10.9,1.1,15.5,3.2l3.1,5.4c0.1,1.2,0.2,2.6,0.2,4.1c0,1.2,0,3.1,0,5.5s0,4.2,0,5.5c0,6.8,2.7,11.2,8.2,13.3
		c3,0.6,5.9,0.9,8.9,0.9c4,0,8.8-0.6,14.5-1.7c1.4-0.2,2,0.8,2,3C378.1,256.8,377.4,258.1,376.1,258.5z M330.1,228
		c-1.4-3.3-5.3-5-11.9-5c-3.6,1.2-7.1,3.7-10.6,7.4c-3,6.6-4.4,10.8-4.4,12.6c0,1.1,0.2,2.3,0.6,3.5c1,3.3,3.5,5,7.6,5
		c0.7,0,1.5-0.1,2.2-0.2c2.6-1.1,4.6-3.1,6.1-5.9c1-2.6,2-5.3,3-8c0.2-1.4,1.5-2.8,3.9-4.4C328.9,231.5,330.1,229.8,330.1,228z"/>
	<path class="st0" d="M428.3,254.1c-4.6,4.7-9.5,7-14.8,7c-4.8,0-9.1-1.7-12.8-5.2c-3.5-3.1-4.8-5.8-4.1-8.2
		c0.1-0.4,0.4-0.6,0.9-0.6c0.7,0,3.2,0.6,7.4,1.9c4.2,1.3,7.3,1.9,9.3,1.9c3.3,0,5-1.5,5-4.4c0-5.1-7.4-7.7-22.2-8
		c-1.9-0.1-3.5,0.1-5,0.6c-0.1,14.5-0.7,36.1-1.7,64.9c-0.7,14.6-1.2,22.4-1.3,23.4c-0.9,9.1-2.4,16.9-4.5,23.2
		c-0.7,2.6-2.5,5.7-5.2,9.3c-3.2,4.3-5.9,6.5-8,6.5c-1.5,0-2.6-1.1-3.4-3.3c-2.6-7.8-3.9-18-3.9-30.6c0-4,0.3-10.8,0.9-20.4
		c1.4-29.9,6.2-52.3,14.6-67.3c0-1.6,0.2-4.8,0.5-9.5s0.5-8.3,0.5-10.8c0-10.4-2.2-15.9-6.5-16.5c-1-0.1-1.5-0.9-1.5-2.2
		c0-3.3,2.3-8.5,6.9-15.6c4.6-7,8.2-10.9,10.8-11.5c4-0.9,5.9,3.6,5.9,13.3c0,5.3-0.6,12.7-1.9,22.2s-1.9,14.4-1.9,14.9
		c1.7-1.4,3.4-2.5,5-3.5c2.7-1.5,6.4-2.2,10.9-2.2c10.3,0,18,2.6,23.4,7.8C437.9,237.5,436.9,245.1,428.3,254.1z M379.2,277.9
		c-2.3,18.2-3.5,29.2-3.5,33c0,5.6,0.5,10.9,1.5,15.9c0.6,2.6,1,3.9,1.3,3.9C379.7,330.7,379.9,313.1,379.2,277.9z"/>
	<path class="st0" d="M521.5,252.6c-10,4.1-19,6.1-27.1,6.1c-8.7,0-16.6-2.3-23.7-6.9c-2.1-0.4-4.7,0.4-7.8,2.2
		c-3.8,2.2-6.8,3.5-8.9,3.7c-1.6,0.5-3.6,0.6-6.1,0.4c-4.5-0.5-7.3-2.3-8.5-5.6c-0.2-2.3-0.5-4.6-0.7-6.9c-0.5-2.8-1.5-4.9-3.2-6.3
		c-0.2,0-0.5,0-0.7,0c-0.4,0.1-0.6,0.2-0.7,0.2c-0.2,0,0.2-1.1,1.3-3.3c1.6-3.7,2.8-7.8,3.8-12.4c1.4-6.9,2.2-14.8,2.2-23.7
		c0-4.9-0.2-10.1-0.6-15.4c1-8.3,1.9-16.5,2.8-24.7c1.4-9.5,3.3-17.3,5.7-23.4c-0.1-3.5,0.9-7.4,3.2-11.9c3-5.9,4.6-9.6,5-10.9
		c6.5-17.7,16.7-30.6,30.6-38.7c5.1-1.2,9.9-1.9,14.6-1.9c6.8,0,12.5,1.4,17.1,4.1c7,8.2,10.6,18.2,10.6,30
		c0,13.7-5.5,31.7-16.4,53.9c-10.9,22.2-29.9,43.3-57,63.2c-0.5,0.9-0.7,8.2-0.7,22.1c0.5,0.9,1.2,1.3,2,1.3c1.1,0,2.7-0.6,4.6-1.9
		c5.8-7.4,11.8-11.1,18-11.1c1.2,0,2.4,0.1,3.5,0.4c1.2,1.2,2.3,4.4,3.3,9.5c0.7,4.2,2.8,6.8,6.1,7.8c1.7,0.1,3.5,0.2,5.2,0.2
		c6.9,0,14-1.6,21.1-4.8L521.5,252.6z M516.5,108.4c0.2-7.5-1.4-15.8-5-24.7c-1.2-3-4.1-4.4-8.5-4.4c-1.6,0-3.5,0.2-5.6,0.6
		c-11.4,5.3-19.4,15-24.1,28.9c-2.8,5.4-7,17.2-12.6,35.2c-1.4,9.6-2.7,19.3-4.1,29.1c-1.5,11.5-2.2,21.4-2.2,29.8
		c0,2.7,0.1,5.4,0.2,8.2c-0.4,1-0.3,1.9,0.3,2.6c0.6,0.7,1.3,1.1,2.3,1.1c7.3-6.1,15-14.2,23-24.5c6.7-8.8,13.3-17.5,20-26.3
		c6.1-14.8,9.6-23.7,10.6-26.7C514.2,127,516.1,117.3,516.5,108.4z"/>
	<path class="st0" d="M610,258.5c-7.3,1.9-14.5,2.9-21.7,2.9c-10.8,0-19.7-2.3-26.7-6.9c-8.8,3.3-16.6,5-23.4,5
		c-6.1,0-11.4-1.4-16.1-4.1c-1.7-1-2.6-3.6-2.6-8c0-5.3,1.5-10.4,4.4-15.2c3.8-6.1,9.3-10.4,16.4-13.2c6.5-2.5,13-3.7,19.3-3.7
		c5.8,0,10.9,1.1,15.5,3.2l3.1,5.4c0.1,1.2,0.2,2.6,0.2,4.1c0,1.2,0,3.1,0,5.5s0,4.2,0,5.5c0,6.8,2.7,11.2,8.2,13.3
		c3,0.6,5.9,0.9,8.9,0.9c4,0,8.8-0.6,14.5-1.7c1.4-0.2,2,0.8,2,3C612.1,256.8,611.4,258.1,610,258.5z M564,228
		c-1.4-3.3-5.3-5-11.9-5c-3.6,1.2-7.1,3.7-10.6,7.4c-3,6.6-4.4,10.8-4.4,12.6c0,1.1,0.2,2.3,0.6,3.5c1,3.3,3.5,5,7.6,5
		c0.7,0,1.5-0.1,2.2-0.2c2.6-1.1,4.6-3.1,6.1-5.9c1-2.6,2-5.3,3-8c0.2-1.4,1.5-2.8,3.9-4.4C562.9,231.5,564,229.8,564,228z"/>
</g>
<g id="TEA">
	<path class="st0" d="M628,148.5h-38v-13.7h92.5v13.7h-38.2v111.2H628V148.5z"/>
	<path class="st0" d="M691.8,217.8c0.4,22.1,14.5,31.1,30.8,31.1c11.7,0,18.7-2,24.8-4.6l2.8,11.7c-5.7,2.6-15.6,5.6-29.8,5.6
		c-27.6,0-44.1-18.2-44.1-45.2c0-27.1,15.9-48.4,42.1-48.4c29.3,0,37.1,25.8,37.1,42.3c0,3.3-0.4,5.9-0.6,7.6h-63.1V217.8z
		 M739.6,206.1c0.2-10.4-4.3-26.5-22.6-26.5c-16.5,0-23.7,15.2-25,26.5H739.6z"/>
	<path class="st0" d="M825.3,259.7l-1.3-11.3h-0.6c-5,7-14.6,13.3-27.4,13.3c-18.2,0-27.4-12.8-27.4-25.8
		c0-21.7,19.3-33.6,53.9-33.4v-1.9c0-7.4-2-20.8-20.4-20.8c-8.3,0-17.1,2.6-23.4,6.7l-3.7-10.8c7.4-4.8,18.2-8,29.5-8
		c27.4,0,34.1,18.7,34.1,36.7V238c0,7.8,0.4,15.4,1.5,21.5h-14.8L825.3,259.7L825.3,259.7z M822.9,213.9c-17.8-0.4-38,2.8-38,20.2
		c0,10.6,7,15.6,15.4,15.6c11.7,0,19.1-7.4,21.7-15c0.6-1.7,0.9-3.5,0.9-5.2L822.9,213.9L822.9,213.9z"/>
</g>
<g id="BOBA_TEA_HOUSE">
	<path class="st0" d="M405.2,277.9c1.6-0.3,5-0.6,8.1-0.6c3.8,0,6.1,0.4,8.1,1.6c1.9,1,3.3,2.9,3.3,5.4s-1.4,4.7-4.5,5.9v0.1
		c3.2,0.9,5.5,3.2,5.5,6.8c0,2.5-1.1,4.5-2.9,5.9c-2,1.6-5.4,2.5-10.8,2.5c-3.1,0-5.4-0.2-6.8-0.4L405.2,277.9L405.2,277.9z
		 M411.4,288.5h2c3.3,0,5-1.4,5-3.4c0-2.1-1.6-3.2-4.4-3.2c-1.4,0-2.1,0.1-2.7,0.2v6.4H411.4z M411.4,300.7c0.6,0.1,1.4,0.1,2.4,0.1
		c2.8,0,5.3-1.1,5.3-4c0-2.8-2.5-3.9-5.6-3.9h-2.1L411.4,300.7L411.4,300.7z"/>
	<path class="st0" d="M463.3,291.1c0,9-5.5,14.5-13.5,14.5c-8.2,0-13-6.2-13-14c0-8.3,5.3-14.4,13.4-14.4
		C458.7,277.1,463.3,283.5,463.3,291.1z M443.4,291.4c0,5.4,2.5,9.2,6.7,9.2s6.6-4,6.6-9.4c0-5-2.4-9.2-6.7-9.2
		C445.9,282.1,443.4,286.1,443.4,291.4z"/>
	<path class="st0" d="M475.6,277.9c1.6-0.3,5-0.6,8.1-0.6c3.8,0,6.1,0.4,8.1,1.6c1.9,1,3.3,2.9,3.3,5.4s-1.4,4.7-4.5,5.9v0.1
		c3.2,0.9,5.5,3.2,5.5,6.8c0,2.5-1.1,4.5-2.9,5.9c-2,1.6-5.4,2.5-10.8,2.5c-3.1,0-5.4-0.2-6.8-0.4L475.6,277.9L475.6,277.9z
		 M481.8,288.5h2c3.3,0,5-1.4,5-3.4c0-2.1-1.6-3.2-4.4-3.2c-1.4,0-2.1,0.1-2.7,0.2v6.4H481.8z M481.8,300.7c0.6,0.1,1.4,0.1,2.4,0.1
		c2.8,0,5.3-1.1,5.3-4c0-2.8-2.5-3.9-5.6-3.9h-2.1L481.8,300.7L481.8,300.7z"/>
	<path class="st0" d="M514.8,298.1l-2,7.1h-6.5l8.4-27.6h8.2l8.6,27.6h-6.7l-2.1-7.1H514.8z M521.8,293.4l-1.7-5.9
		c-0.5-1.6-1-3.7-1.4-5.3h-0.1c-0.4,1.6-0.8,3.7-1.3,5.3l-1.6,5.9H521.8z"/>
	<path class="st0" d="M563.6,282.8h-7.4v-5.2h21.2v5.2h-7.5v22.4h-6.3V282.8z"/>
	<path class="st0" d="M605.3,293.5h-10.2v6.6h11.3v5.1h-17.6v-27.6h17v5.1H595v5.7h10.2L605.3,293.5L605.3,293.5z"/>
	<path class="st0" d="M625.4,298.1l-2,7.1h-6.5l8.4-27.6h8.2l8.6,27.6h-6.7l-2.1-7.1H625.4z M632.4,293.4l-1.7-5.9
		c-0.5-1.6-1-3.7-1.4-5.3h-0.1c-0.4,1.6-0.8,3.7-1.3,5.3l-1.6,5.9H632.4z"/>
	<path class="st0" d="M676.7,277.6v10.6H687v-10.6h6.2v27.6H687v-11.5h-10.3v11.5h-6.3v-27.6H676.7z"/>
	<path class="st0" d="M732.1,291.1c0,9-5.5,14.5-13.5,14.5c-8.2,0-13-6.2-13-14c0-8.3,5.3-14.4,13.4-14.4
		C727.5,277.1,732.1,283.5,732.1,291.1z M712.1,291.4c0,5.4,2.5,9.2,6.7,9.2s6.6-4,6.6-9.4c0-5-2.4-9.2-6.7-9.2
		C714.6,282.1,712.1,286.1,712.1,291.4z"/>
	<path class="st0" d="M750.6,277.6v15.9c0,4.8,1.8,7.2,5,7.2c3.3,0,5.1-2.3,5.1-7.2v-15.9h6.2V293c0,8.5-4.3,12.6-11.5,12.6
		c-7,0-11.1-3.8-11.1-12.6v-15.4H750.6z"/>
	<path class="st0" d="M780.7,298.7c1.7,0.9,4.3,1.7,6.9,1.7c2.9,0,4.4-1.2,4.4-3c0-1.7-1.3-2.7-4.6-3.9c-4.6-1.6-7.6-4.1-7.6-8.1
		c0-4.7,3.9-8.3,10.4-8.3c3.1,0,5.4,0.7,7,1.4l-1.4,5c-1.1-0.5-3.1-1.3-5.8-1.3s-4,1.2-4,2.7c0,1.8,1.6,2.5,5.1,3.9
		c4.9,1.8,7.2,4.3,7.2,8.2c0,4.6-3.6,8.6-11.1,8.6c-3.2,0-6.3-0.8-7.8-1.7L780.7,298.7z"/>
	<path class="st0" d="M827.2,293.5H817v6.6h11.3v5.1h-17.6v-27.6h17v5.1H817v5.7h10.2V293.5z"/>
</g>
<path class="st1" d="M179.4,82.7c0,0-9.1,7.3-18-0.8c0,0-7.4-6-4.9-20.7c0,0,1.1-5.1,5.7-15.7c0,0,2.7-4.2,1.8-10.6
	c0,0,18.5,7.1,28.2,19.2s5.4,20.7,5.4,20.7s-3.4,8.2-12.3,7.6c0,0,1.1-15-10.7-33.4c0,0,7.4,17.3,6.9,27.3c0,0,1.2,8.2-2.3,22
	c0,0-0.9,4.3-3.6,4.4c0,0-2.8-0.7-1.6-2.7c0,0,2-2.1,3.3-5.5C177.2,94.4,179.6,86.3,179.4,82.7z"/>
<path class="st1" d="M210.6,101.6c0,0-26.3-8.9-21.5-37.1c0,0,2.6-22.6,35.2-36.4c0,0,11.7-4.3,38.6-8.6c0,0,11.7,0,23.5-10
	c0,0,9.4,46-2.3,81s-34.6,37.2-34.6,37.2s-20.6,3.7-30.9-14.9c0,0,31.5-17.1,53.2-64.2c0,0-25.2,37-45.8,48.6c0,0-14.9,13-46.9,23.6
	c0,0-9.9,3.7-13.5-1.5c0,0-2.2-6.5,3.5-6.6c0,0,6.6,1.3,15.3-0.4C184.3,112.2,203.5,106.7,210.6,101.6z"/>
<path class="st1" d="M270.1,220c7.1-25.7,3.7-51.1-6.7-75.3c-10.2-23.7-28-40.4-50-53.6C179.8,70.8,144.1,65.8,107,76.8
	c-56.2,16.7-89.8,59.8-89.8,116c0,30.1,14.2,50.8,20.3,68.5c2,5.7,26.8,66.7,26.8,66.7s-8.7,99.2,0,0c1.6-18.7-17.2-134.1-3.8-161.1
	c11.7-23.5,29.9-35.6,54.3-43.3c28-8.9,53.5-2.8,76.4,16c24.9,20.5,23,41.1,21.5,54.6c-1,9.2-13.2,29.7-27.3,39.6
	c-6.9,4.8-23.7,12.3-31.6,13c-15,6,8.5,29,27.2,41.3c9.7,5.6,31.7,18.2,31.7,18.2C229.1,290.2,262.4,248,270.1,220z"/>
<path class="st1" d="M123.1,228.2c-1.1-9.6,0.2-10.7,9.3-7.2c15.8,5.9,29.4,3.4,39-7.4c12.9-14.5,14.7-27.9,6.8-44
	c-14-28.7-55.9-31.2-77.9-5.3c-19.1,22.4-21.6,48.9-12.6,75.7c17.2,51.1,111.5,107.9,160.1,112.7
	C202.2,335.4,125.7,251.6,123.1,228.2z"/>
<path class="st0" d="M94.2,172.5c0,0,15.9,112.4,7.5,176.5c-1.3-6.4-15.1-99.5-16.8-117.8C82.2,200.9,90.6,183.6,94.2,172.5z"/>
<g>
	<path class="st1" d="M271.8,48.6c0,0-41.6,44.9-47.9,45.7l3.3,2.2C227.2,96.5,244.3,88.1,271.8,48.6z"/>
	<path class="st1" d="M254.8,67.5c0,0-7.1-12.7-0.9-28c0,0-0.5,15.5,4.6,23.3L254.8,67.5z"/>
	<path class="st1" d="M240.9,80.4c0,0-6-13.7,0.2-31.8c0,0-0.7,18.2,4.3,27.4L240.9,80.4z"/>
	<path class="st1" d="M228.5,92.8c0,0-7.1-14.5-0.9-32.5c0,0-0.5,18.9,4.5,28.1L228.5,92.8z"/>
	<path class="st1" d="M259.3,71.2c0,0,7.8,1.3,17.6-12.2c0,0-7.4,8.2-15,8.1L259.3,71.2z"/>
	<path class="st1" d="M248.7,85.8c0,0,12.5,0.6,20.7-11.4c0,0-9.2,8.3-17.5,7.4L248.7,85.8z"/>
	<path class="st1" d="M235.7,99.6c0,0,18.9,4.1,40.9-5.1c0,0-23.4,3.4-35.7,0L235.7,99.6z"/>
	<circle class="st1" cx="200.2" cy="43.5" r="4.7"/>
	<circle class="st1" cx="213" cy="68.8" r="4.7"/>
	<circle class="st1" cx="278.9" cy="73.5" r="4.7"/>
	<circle class="st1" cx="267" cy="30.2" r="4.7"/>
</g>
<circle class="st1" cx="167.9" cy="59" r="4.7"/>
<path class="st1" d="M200.2,41.2c0,0,3.9,0.3,3.7,3.5c0,0,1.4-3.8-3.1-5.1L200.2,41.2z"/>
<path class="st1" d="M267,28.3c0,0,3.9,0.3,3.7,3.5c0,0,1.4-3.8-3.1-5.1L267,28.3z"/>
<path class="st1" d="M213,66.5c0,0,3.9,0.3,3.7,3.5c0,0,1.4-3.8-3.1-5.1L213,66.5z"/>
<path class="st1" d="M278.9,71.6c0,0,3.9,0.3,3.7,3.5c0,0,1.4-3.8-3.1-5.1L278.9,71.6z"/>
<path class="st1" d="M165.9,58.2c0,0,2.4-3.1,4.9-1.3c0,0-2.4-3.2-5.9-0.1L165.9,58.2z"/>
</svg>
