<svg xmlns="http://www.w3.org/2000/svg" width="60.895" height="127.835" viewBox="0 0 60.895 127.835">
  <g id="Group_145" data-name="Group 145" transform="translate(-1762 -6495.452)">
    <g id="Group_138" data-name="Group 138" transform="translate(1762 6495.452)">
      <path id="Path_1365" data-name="Path 1365" d="M-272.953,4515.4h-37.088a1.525,1.525,0,0,1-.738-.19h0l.083.747a1.462,1.462,0,0,0,1.452,1.286h35.495a1.462,1.462,0,0,0,1.452-1.286l.083-.747h0A1.525,1.525,0,0,1-272.953,4515.4Z" transform="translate(320.74 -4389.713)" fill="#95b9ab"/>
      <g id="Group_136" data-name="Group 136" transform="translate(27.689 0.306)">
        <path id="Path_1366" data-name="Path 1366" d="M280.294,419.16l-4.58-.879a.917.917,0,0,0-1.073.727l-5.26,27.4c.55.022,1.129.034,1.726.034a31.759,31.759,0,0,0,4.947-.331l4.967-25.873A.917.917,0,0,0,280.294,419.16Z" transform="translate(-269.381 -418.264)" fill="#95b9ab"/>
      </g>
      <path id="Path_1367" data-name="Path 1367" d="M-579.146,460.388h-.073a28.025,28.025,0,0,0-1.643-8.756,28.034,28.034,0,0,0-4.3-7.789.306.306,0,0,0-.429-.053.306.306,0,0,0-.052.429,27.257,27.257,0,0,1,5.817,16.168h-55.017a27.509,27.509,0,0,1,26.053-26.714l-.174.909a26.677,26.677,0,0,0-3.454.32c-1.217.216-1.714.475-1.714.895s.521.588.717.655a8.435,8.435,0,0,0,1.447.312,34.1,34.1,0,0,0,4.634.278,34.1,34.1,0,0,0,4.634-.278,8.435,8.435,0,0,0,1.447-.312c.2-.067.717-.245.717-.655,0-.36-.4-.53-.536-.586a4.456,4.456,0,0,0-.732-.22l.148-.769a27.576,27.576,0,0,1,10.99,5.033.3.3,0,0,0,.185.063.305.305,0,0,0,.243-.12.306.306,0,0,0-.058-.428,28.162,28.162,0,0,0-5.421-3.241,27.976,27.976,0,0,0-5.825-1.906l4.422-23.032a1.214,1.214,0,0,0-.189-.916,1.214,1.214,0,0,0-.781-.515l-4.58-.879a1.215,1.215,0,0,0-.916.189,1.215,1.215,0,0,0-.515.781l-4.57,23.806A27.9,27.9,0,0,0-618.9,435.5a28.071,28.071,0,0,0-8.538,5.97,28,28,0,0,0-8.023,18.916h-.073a1.224,1.224,0,0,0-1.222,1.222v1.37a1.224,1.224,0,0,0,1.222,1.222h.231l7.6,68.435a1.832,1.832,0,0,0,.795,1.3l.067.6a1.769,1.769,0,0,0,1.755,1.555h35.495a1.77,1.77,0,0,0,1.755-1.558l.066-.6a1.832,1.832,0,0,0,.795-1.3v0l7.6-68.432h.231a1.224,1.224,0,0,0,1.222-1.222v-1.37A1.224,1.224,0,0,0-579.146,460.388Zm-30.17-24c-.842-.039-1.626-.1-2.3-.19a6.6,6.6,0,0,1-1.8-.4,5.325,5.325,0,0,1,1.342-.333,26.9,26.9,0,0,1,2.984-.265Zm8.052-.59a3.637,3.637,0,0,1-.744.224l.082-.429A3.379,3.379,0,0,1-601.263,435.8Zm-2.242-26.431a.607.607,0,0,1,.257-.391.607.607,0,0,1,.458-.094l4.58.879a.607.607,0,0,1,.391.257.607.607,0,0,1,.094.458L-602.2,433.8h0l-.263,1.37h0l-.185.965c-.127.02-.264.039-.413.058a35.116,35.116,0,0,1-4.274.235c-.461,0-.916-.007-1.359-.021Zm15.062,125.1a1.158,1.158,0,0,1-1.148,1.018h-35.495a1.157,1.157,0,0,1-1.148-1.015l-.029-.257a1.83,1.83,0,0,0,.38.04h37.088a1.831,1.831,0,0,0,.38-.04Zm.862-1.9a1.223,1.223,0,0,1-1.213,1.074h-37.088a1.222,1.222,0,0,1-1.213-1.072l-7.59-68.365h54.694Zm9.047-69.585a.612.612,0,0,1-.611.611h-56.386a.612.612,0,0,1-.611-.611v-1.37a.612.612,0,0,1,.611-.611h56.386a.612.612,0,0,1,.611.611Z" transform="translate(636.754 -408.258)" fill="#95b9ab"/>
      <path id="Path_1368" data-name="Path 1368" d="M-443.245,1446.971a28.172,28.172,0,0,0-5.906,7.3,27.889,27.889,0,0,0-3.2,9.032.306.306,0,0,0,.25.352.309.309,0,0,0,.052,0,.306.306,0,0,0,.3-.254,27.581,27.581,0,0,1,8.909-15.982.305.305,0,0,0,.027-.431A.306.306,0,0,0-443.245,1446.971Z" transform="translate(457.992 -1415.156)" fill="#95b9ab"/>
      <path id="Path_1369" data-name="Path 1369" d="M930.011,1457.6a.306.306,0,0,0,.447-.417c-.53-.569-1.09-1.122-1.665-1.645a.306.306,0,0,0-.411.452C928.944,1456.5,929.492,1457.045,930.011,1457.6Z" transform="translate(-880.458 -1423.46)" fill="#95b9ab"/>
      <rect id="Rectangle_31" data-name="Rectangle 31" width="60.675" height="3.339" rx="1.669" transform="translate(0.22 52.306)" fill="#95b9ab"/>
    </g>
    <text id="TOP" transform="translate(1775.35 6587.041)" fill="#95b9ab" font-size="15" font-family="JosefinSans-Bold, Josefin Sans" font-weight="700" letter-spacing="0.01em"><tspan x="0" y="0">TOP</tspan></text>
  </g>
</svg>
