<svg xmlns="http://www.w3.org/2000/svg" width="218.5" height="96.289" viewBox="0 0 218.5 96.289">
  <g id="Group_2" data-name="Group 2" transform="translate(-177.905 -198.713)">
    <g id="APHA" transform="translate(249.186 215.667)">
      <path id="Path_1" data-name="Path 1" d="M470.4,416.026a22.71,22.71,0,0,1-5.759.759,12.78,12.78,0,0,1-7.088-1.822,17.754,17.754,0,0,1-6.2,1.329,8.394,8.394,0,0,1-4.282-1.083q-.69-.393-.689-2.117a7.617,7.617,0,0,1,1.173-4.036,8.6,8.6,0,0,1,4.354-3.495,14.4,14.4,0,0,1,5.136-.984,9.689,9.689,0,0,1,4.109.837l.831,1.427c.032.329.05.689.05,1.083v2.9a3.4,3.4,0,0,0,2.165,3.544,11.5,11.5,0,0,0,2.363.246,20.533,20.533,0,0,0,3.839-.443q.541-.1.541.806C470.942,415.583,470.761,415.931,470.4,416.026Zm-12.207-8.1q-.542-1.329-3.15-1.329a7.105,7.105,0,0,0-2.806,1.969,11.713,11.713,0,0,0-1.181,3.347,3.263,3.263,0,0,0,.148.935,1.853,1.853,0,0,0,2.018,1.329,3.55,3.55,0,0,0,.591-.049,3.284,3.284,0,0,0,1.624-1.575q.393-1.034.787-2.116.1-.542,1.034-1.157A1.693,1.693,0,0,0,458.193,407.925Z" transform="translate(-446.38 -366.874)" fill="#92c83e"/>
      <path id="Path_2" data-name="Path 2" d="M541.859,387.962a5.441,5.441,0,0,1-3.938,1.871,4.836,4.836,0,0,1-3.4-1.378q-1.378-1.23-1.083-2.165a.227.227,0,0,1,.246-.148,12.034,12.034,0,0,1,1.969.516,9.431,9.431,0,0,0,2.461.517q1.329,0,1.329-1.182,0-2.018-5.906-2.117a3.479,3.479,0,0,0-1.329.148q-.05,5.759-.443,17.228-.3,5.807-.347,6.2a27.939,27.939,0,0,1-1.19,6.153,7.975,7.975,0,0,1-1.388,2.461q-1.29,1.722-2.131,1.723-.6,0-.892-.886a26.128,26.128,0,0,1-1.041-8.121q0-1.577.246-5.415.542-11.912,3.889-17.868,0-.639.123-2.51t.123-2.855q0-4.135-1.723-4.381-.394-.049-.394-.59,0-1.329,1.821-4.135t2.855-3.052q1.575-.343,1.576,3.545a46.128,46.128,0,0,1-.517,5.882q-.517,3.765-.517,3.962a14.264,14.264,0,0,1,1.329-.935,6.08,6.08,0,0,1,2.9-.59q4.085,0,6.2,2.067Q545.254,384.37,541.859,387.962Zm-13.044,6.3q-.936,7.236-.935,8.762a22.048,22.048,0,0,0,.394,4.233q.245,1.034.344,1.034Q529.11,408.291,528.815,394.262Z" transform="translate(-503.964 -339.971)" fill="#92c83e"/>
      <path id="Path_3" data-name="Path 3" d="M617.967,310.168a19.318,19.318,0,0,1-7.186,1.624,11.475,11.475,0,0,1-6.3-1.822,3.141,3.141,0,0,0-2.067.591,6.914,6.914,0,0,1-2.362.985,4.207,4.207,0,0,1-1.624.1,2.461,2.461,0,0,1-2.265-1.477q-.1-.935-.2-1.822a2.72,2.72,0,0,0-.837-1.674h-.2a.8.8,0,0,1-.2.049q-.1,0,.336-.886a18.087,18.087,0,0,0,1.007-3.3,31.008,31.008,0,0,0,.576-6.3q0-1.968-.148-4.086.393-3.3.739-6.547a26.64,26.64,0,0,1,1.526-6.2,6.658,6.658,0,0,1,.836-3.15,25.011,25.011,0,0,0,1.329-2.9,19.1,19.1,0,0,1,8.121-10.287,16.42,16.42,0,0,1,3.888-.492,8.736,8.736,0,0,1,4.528,1.082,11.776,11.776,0,0,1,2.806,7.974q0,5.464-4.356,14.324t-15.136,16.785a37.432,37.432,0,0,0-.2,5.857.6.6,0,0,0,.541.344,2.619,2.619,0,0,0,1.231-.492q2.312-2.953,4.774-2.953a4.326,4.326,0,0,1,.935.1,5.593,5.593,0,0,1,.886,2.51,2.347,2.347,0,0,0,1.624,2.068q.688.049,1.378.049a13.643,13.643,0,0,0,5.611-1.28Zm-1.329-38.295a16.2,16.2,0,0,0-1.329-6.547,2.174,2.174,0,0,0-2.264-1.181,8.639,8.639,0,0,0-1.477.148,12.268,12.268,0,0,0-6.4,7.679,68.708,68.708,0,0,0-3.347,9.352q-.542,3.839-1.083,7.728a63.019,63.019,0,0,0-.591,7.925q0,1.083.049,2.166a.682.682,0,0,0,.074.689.725.725,0,0,0,.615.3,42.542,42.542,0,0,0,6.1-6.5l5.316-6.99q2.411-5.907,2.806-7.088A28.174,28.174,0,0,0,616.639,271.873Z" transform="translate(-555.332 -262.57)" fill="#92c83e"/>
      <path id="Path_4" data-name="Path 4" d="M704.337,416.026a22.71,22.71,0,0,1-5.759.759,12.778,12.778,0,0,1-7.088-1.822,17.756,17.756,0,0,1-6.2,1.329,8.394,8.394,0,0,1-4.282-1.083q-.69-.393-.689-2.117a7.615,7.615,0,0,1,1.174-4.036,8.593,8.593,0,0,1,4.353-3.495,14.4,14.4,0,0,1,5.136-.984,9.685,9.685,0,0,1,4.108.837l.832,1.427c.032.329.05.689.05,1.083v2.9a3.4,3.4,0,0,0,2.166,3.544,11.5,11.5,0,0,0,2.363.246,20.531,20.531,0,0,0,3.839-.443q.541-.1.541.806C704.879,415.583,704.7,415.931,704.337,416.026Zm-12.207-8.1q-.542-1.329-3.15-1.329a7.107,7.107,0,0,0-2.806,1.969,11.71,11.71,0,0,0-1.181,3.347,3.253,3.253,0,0,0,.148.935,1.852,1.852,0,0,0,2.018,1.329,3.549,3.549,0,0,0,.591-.049,3.283,3.283,0,0,0,1.624-1.575q.393-1.034.787-2.116.1-.542,1.033-1.157A1.693,1.693,0,0,0,692.13,407.925Z" transform="translate(-618.206 -366.874)" fill="#92c83e"/>
    </g>
    <g id="TEA" transform="translate(330.005 231.964)">
      <path id="Path_5" data-name="Path 5" d="M760.866,327.593h-10.09V323.95h24.562v3.643H765.2v29.533h-4.332Z" transform="translate(-750.776 -323.95)" fill="#ee202e"/>
      <path id="Path_6" data-name="Path 6" d="M841.117,370.376c.1,5.858,3.84,8.269,8.171,8.269a15.666,15.666,0,0,0,6.6-1.23l.738,3.1a19.287,19.287,0,0,1-7.925,1.477c-7.335,0-11.715-4.824-11.715-12.01s4.233-12.847,11.173-12.847c7.777,0,9.845,6.842,9.845,11.223a16.243,16.243,0,0,1-.148,2.018Zm12.7-3.1c.049-2.756-1.132-7.039-6.006-7.039-4.38,0-6.3,4.036-6.645,7.039Z" transform="translate(-814.094 -348.325)" fill="#ee202e"/>
      <path id="Path_7" data-name="Path 7" d="M944.365,381.5l-.344-3h-.148a8.874,8.874,0,0,1-7.285,3.544c-4.823,0-7.285-3.4-7.285-6.842,0-5.758,5.119-8.909,14.324-8.86v-.492c0-1.969-.541-5.513-5.414-5.513a11.876,11.876,0,0,0-6.2,1.772l-.985-2.855a14.792,14.792,0,0,1,7.827-2.116c7.285,0,9.058,4.971,9.058,9.746v8.909a33.564,33.564,0,0,0,.393,5.71Zm-.64-12.158c-4.726-.1-10.09.738-10.09,5.365a3.834,3.834,0,0,0,4.086,4.135,5.928,5.928,0,0,0,5.759-3.987,4.538,4.538,0,0,0,.246-1.378Z" transform="translate(-881.903 -348.325)" fill="#ee202e"/>
    </g>
    <g id="BOBA_TEA_HOUSE" data-name="BOBA TEA HOUSE" transform="translate(280.932 269.76)">
      <path id="Path_8" data-name="Path 8" d="M565.947,466.7a13.2,13.2,0,0,1,2.141-.151,4.043,4.043,0,0,1,2.163.412,1.6,1.6,0,0,1,.88,1.435,1.656,1.656,0,0,1-1.206,1.565v.021a1.833,1.833,0,0,1,1.456,1.8,1.953,1.953,0,0,1-.761,1.555,4.626,4.626,0,0,1-2.88.663,12.89,12.89,0,0,1-1.793-.108Zm1.641,2.8h.544c.869,0,1.336-.359,1.336-.9s-.424-.848-1.173-.848a4.683,4.683,0,0,0-.707.043Zm0,3.249a5.219,5.219,0,0,0,.641.022c.75,0,1.413-.283,1.413-1.055,0-.739-.663-1.032-1.489-1.032h-.565Z" transform="translate(-565.947 -466.487)" fill="#757679"/>
      <path id="Path_9" data-name="Path 9" d="M604.633,470.012c0,2.4-1.456,3.859-3.6,3.859a3.416,3.416,0,0,1-3.445-3.728,3.545,3.545,0,0,1,3.565-3.836A3.414,3.414,0,0,1,604.633,470.012Zm-5.293.1c0,1.434.674,2.445,1.783,2.445s1.761-1.065,1.761-2.489c0-1.315-.63-2.446-1.772-2.446C599.992,467.62,599.339,468.686,599.339,470.11Z" transform="translate(-589.189 -466.306)" fill="#757679"/>
      <path id="Path_10" data-name="Path 10" d="M636.4,466.7a13.2,13.2,0,0,1,2.141-.151,4.043,4.043,0,0,1,2.163.412,1.6,1.6,0,0,1,.881,1.435,1.657,1.657,0,0,1-1.206,1.565v.021a1.833,1.833,0,0,1,1.456,1.8,1.953,1.953,0,0,1-.76,1.555,4.627,4.627,0,0,1-2.881.663,12.89,12.89,0,0,1-1.793-.108Zm1.641,2.8h.544c.869,0,1.337-.359,1.337-.9s-.424-.848-1.174-.848a4.681,4.681,0,0,0-.707.043Zm0,3.249a5.215,5.215,0,0,0,.641.022c.75,0,1.413-.283,1.413-1.055,0-.739-.663-1.032-1.489-1.032h-.566Z" transform="translate(-617.691 -466.487)" fill="#757679"/>
      <path id="Path_11" data-name="Path 11" d="M669.375,472.2l-.522,1.88h-1.718l2.239-7.326h2.174l2.272,7.326h-1.783l-.566-1.88Zm1.859-1.239-.457-1.555c-.13-.434-.26-.978-.369-1.412h-.022c-.109.435-.217.989-.337,1.412l-.434,1.555Z" transform="translate(-640.27 -466.634)" fill="#757679"/>
      <path id="Path_12" data-name="Path 12" d="M718.922,468.144h-1.967v-1.391h5.63v1.391h-2v5.935h-1.663Z" transform="translate(-676.862 -466.634)" fill="#757679"/>
      <path id="Path_13" data-name="Path 13" d="M754.02,470.981h-2.7v1.739h3.011v1.359h-4.674v-7.326h4.521v1.359h-2.858v1.522h2.7Z" transform="translate(-700.884 -466.634)" fill="#757679"/>
      <path id="Path_14" data-name="Path 14" d="M779.942,472.2l-.521,1.88H777.7l2.238-7.326h2.174l2.272,7.326H782.6l-.565-1.88Zm1.859-1.239-.456-1.555c-.131-.434-.261-.978-.37-1.412h-.021c-.109.435-.218.989-.337,1.412l-.435,1.555Z" transform="translate(-721.481 -466.634)" fill="#757679"/>
      <path id="Path_15" data-name="Path 15" d="M832.867,466.753v2.815H835.6v-2.815h1.652v7.326H835.6v-3.065h-2.728v3.065H831.2v-7.326Z" transform="translate(-760.777 -466.634)" fill="#757679"/>
      <path id="Path_16" data-name="Path 16" d="M873.371,470.012c0,2.4-1.456,3.859-3.6,3.859a3.416,3.416,0,0,1-3.445-3.728,3.545,3.545,0,0,1,3.565-3.836A3.414,3.414,0,0,1,873.371,470.012Zm-5.293.1c0,1.434.674,2.445,1.783,2.445s1.761-1.065,1.761-2.489c0-1.315-.63-2.446-1.771-2.446C868.73,467.62,868.078,468.686,868.078,470.11Z" transform="translate(-786.575 -466.306)" fill="#757679"/>
      <path id="Path_17" data-name="Path 17" d="M906.755,466.753v4.217c0,1.262.479,1.9,1.326,1.9.87,0,1.348-.608,1.348-1.9v-4.217h1.652v4.109c0,2.261-1.141,3.337-3.054,3.337-1.847,0-2.934-1.022-2.934-3.358v-4.087Z" transform="translate(-815.047 -466.634)" fill="#757679"/>
      <path id="Path_18" data-name="Path 18" d="M940.51,472.044a4.23,4.23,0,0,0,1.837.456c.761,0,1.163-.315,1.163-.794,0-.456-.348-.718-1.228-1.033-1.217-.424-2.01-1.1-2.01-2.163,0-1.25,1.043-2.206,2.771-2.206a4.5,4.5,0,0,1,1.869.368l-.369,1.338a3.484,3.484,0,0,0-1.532-.348c-.717,0-1.065.326-1.065.706,0,.467.413.674,1.359,1.033,1.293.478,1.9,1.152,1.9,2.185,0,1.228-.946,2.271-2.956,2.271a4.791,4.791,0,0,1-2.076-.445Z" transform="translate(-840.814 -466.306)" fill="#757679"/>
      <path id="Path_19" data-name="Path 19" d="M975.888,470.981h-2.7v1.739H976.2v1.359h-4.674v-7.326h4.521v1.359h-2.858v1.522h2.7Z" transform="translate(-863.845 -466.634)" fill="#757679"/>
    </g>
    <path id="Path_20" data-name="Path 20" d="M322.931,236.769a3.686,3.686,0,0,1-4.785-.211s-1.977-1.6-1.311-5.507a25.734,25.734,0,0,1,1.513-4.159,4.421,4.421,0,0,0,.469-2.814s4.9,1.882,7.49,5.089,1.422,5.5,1.422,5.5a3.391,3.391,0,0,1-3.262,2.016s.285-3.994-2.844-8.879c0,0,1.972,4.6,1.823,7.24a16.246,16.246,0,0,1-.6,5.842s-.25,1.15-.955,1.177c0,0-.74-.186-.416-.724a4.834,4.834,0,0,0,.878-1.464A13.606,13.606,0,0,0,322.931,236.769Z" transform="translate(-101.943 -18.631)" fill="#757679" fill-rule="evenodd"/>
    <path id="Path_21" data-name="Path 21" d="M338.029,223.173s-6.99-2.372-5.7-9.845c0,0,.684-6.008,9.345-9.666a61.048,61.048,0,0,1,10.257-2.29,10.5,10.5,0,0,0,6.23-2.659s2.507,12.221-.608,21.5-9.193,9.882-9.193,9.882-5.47.988-8.205-3.951c0,0,8.357-4.535,14.131-17.045,0,0-6.686,9.831-12.156,12.906,0,0-3.951,3.455-12.46,6.266,0,0-2.622.97-3.578-.406,0,0-.573-1.72.918-1.758a11.49,11.49,0,0,0,4.053-.115S336.162,224.526,338.029,223.173Z" transform="translate(-108.765)" fill="#92c83e" fill-rule="evenodd"/>
    <path id="Path_22" data-name="Path 22" d="M245.076,299.851a29.7,29.7,0,0,0-1.77-19.984c-2.705-6.284-7.429-10.728-13.277-14.244-8.941-5.376-18.422-6.714-28.273-3.783-14.933,4.443-23.849,15.872-23.851,30.807,0,7.993,3.766,13.494,5.4,18.182.529,1.52,7.118,17.715,7.118,17.715h0c.435-4.969-4.556-35.615-1-42.777,3.094-6.237,7.931-9.452,14.418-11.509,7.423-2.354,14.2-.75,20.279,4.248,6.614,5.436,6.1,10.905,5.708,14.494-.267,2.435-3.514,7.879-7.26,10.521-1.823,1.285-6.282,3.269-8.381,3.438-3.97,1.591,2.252,7.694,7.216,10.965,2.57,1.5,8.427,4.84,8.427,4.84C234.187,318.482,243.038,307.29,245.076,299.851Z" transform="translate(0 -45.251)" fill="#92c83e" fill-rule="evenodd"/>
    <path id="Path_23" data-name="Path 23" d="M254.245,357.349c-.282-2.545.052-2.831,2.481-1.915,4.193,1.58,7.806.893,10.356-1.964,3.432-3.848,3.9-7.4,1.8-11.681-3.719-7.607-14.852-8.273-20.69-1.4-5.059,5.951-5.74,12.99-3.347,20.092,4.573,13.57,29.593,28.654,42.511,29.91C275.245,385.795,254.931,363.557,254.245,357.349Z" transform="translate(-48.193 -100.565)" fill="#dc1f26" fill-rule="evenodd"/>
    <path id="Path_24" data-name="Path 24" d="M247.791,361.73s4.231,29.849,2,46.867c-.35-1.7-4.008-26.419-4.456-31.277C244.588,369.27,246.831,364.672,247.791,361.73Z" transform="translate(-49.416 -119.735)" fill="#dc1f26"/>
    <g id="Group_1" data-name="Group 1" transform="translate(225.265 202.942)">
      <path id="Path_25" data-name="Path 25" d="M397.4,237.815s-11.044,11.917-12.716,12.13l.884.587S390.094,248.293,397.4,237.815Z" transform="translate(-377.146 -231.662)" fill="#c0dc8f" fill-rule="evenodd"/>
      <path id="Path_26" data-name="Path 26" d="M413.048,236.075a9.194,9.194,0,0,1-.23-7.447s-.121,4.105,1.211,6.175Z" transform="translate(-397.31 -224.914)" fill="#c0dc8f" fill-rule="evenodd"/>
      <path id="Path_27" data-name="Path 27" d="M399.732,246.219a12.491,12.491,0,0,1,.059-8.438s-.181,4.826,1.154,7.27Z" transform="translate(-387.692 -231.637)" fill="#c0dc8f" fill-rule="evenodd"/>
      <path id="Path_28" data-name="Path 28" d="M386.811,258.149a12.137,12.137,0,0,1-.229-8.636s-.131,5.03,1.2,7.474Z" transform="translate(-378.042 -240.254)" fill="#c0dc8f" fill-rule="evenodd"/>
      <path id="Path_29" data-name="Path 29" d="M420.117,251.441s2.076.353,4.679-3.252c0,0-1.977,2.184-3.979,2.142Z" transform="translate(-403.169 -239.282)" fill="#c0dc8f" fill-rule="evenodd"/>
      <path id="Path_30" data-name="Path 30" d="M409.463,266.623a6.665,6.665,0,0,0,5.483-3.02s-2.443,2.217-4.643,1.966Z" transform="translate(-395.344 -250.603)" fill="#c0dc8f" fill-rule="evenodd"/>
      <path id="Path_31" data-name="Path 31" d="M396.488,285.079a19.889,19.889,0,0,0,10.846-1.358s-6.205.911-9.468,0Z" transform="translate(-385.813 -265.38)" fill="#c0dc8f" fill-rule="evenodd"/>
      <circle id="Ellipse_1" data-name="Ellipse 1" cx="1.253" cy="1.253" r="1.253" transform="translate(0 3.53)" fill="#c0dc8f"/>
      <circle id="Ellipse_2" data-name="Ellipse 2" cx="1.253" cy="1.253" r="1.253" transform="translate(3.383 10.247)" fill="#c0dc8f"/>
      <circle id="Ellipse_3" data-name="Ellipse 3" cx="1.253" cy="1.253" r="1.253" transform="translate(20.893 11.5)" fill="#c0dc8f"/>
      <circle id="Ellipse_4" data-name="Ellipse 4" cx="1.253" cy="1.253" r="1.253" transform="translate(17.727 0)" fill="#c0dc8f"/>
    </g>
    <circle id="Ellipse_5" data-name="Ellipse 5" cx="1.253" cy="1.253" r="1.253" transform="translate(216.673 210.596)" fill="#bad982"/>
    <path id="Path_32" data-name="Path 32" d="M361,229.2s1.024.092.987.924a1.014,1.014,0,0,0-.82-1.342Z" transform="translate(-134.484 -22.084)" fill="#eff5d9" fill-rule="evenodd"/>
    <path id="Path_33" data-name="Path 33" d="M427.768,216.288s1.024.092.987.924a1.014,1.014,0,0,0-.82-1.341Z" transform="translate(-183.523 -12.602)" fill="#eff5d9" fill-rule="evenodd"/>
    <path id="Path_34" data-name="Path 34" d="M373.744,254.569s1.024.093.987.924a1.014,1.014,0,0,0-.82-1.341Z" transform="translate(-143.843 -40.719)" fill="#eff5d9" fill-rule="evenodd"/>
    <path id="Path_35" data-name="Path 35" d="M439.693,259.655s1.024.092.987.924a1.014,1.014,0,0,0-.82-1.342Z" transform="translate(-192.282 -44.455)" fill="#eff5d9" fill-rule="evenodd"/>
    <path id="Path_36" data-name="Path 36" d="M325.941,245.348s.63-.812,1.31-.333a1.014,1.014,0,0,0-1.572-.033Z" transform="translate(-108.539 -33.723)" fill="#eff5d9" fill-rule="evenodd"/>
  </g>
</svg>
