<?xml version="1.0" encoding="utf-8"?>
<!-- Generator: Adobe Illustrator 24.3.0, SVG Export Plug-In . SVG Version: 6.00 Build 0)  -->
<svg version="1.1" id="Layer_1" xmlns="http://www.w3.org/2000/svg" xmlns:xlink="http://www.w3.org/1999/xlink" x="0px" y="0px"
	 viewBox="0 0 25.4 43.4" style="enable-background:new 0 0 25.4 43.4;" xml:space="preserve">
<style type="text/css">
	.st0{fill:#FFFFFF;}
	.st1{fill-rule:evenodd;clip-rule:evenodd;fill:#757679;}
	.st2{fill-rule:evenodd;clip-rule:evenodd;fill:#92C83E;}
	.st3{fill-rule:evenodd;clip-rule:evenodd;fill:#DC1F26;}
	.st4{fill:#DC1F26;}
	.st5{fill-rule:evenodd;clip-rule:evenodd;fill:#C0DC8F;}
	.st6{fill:#C0DC8F;}
	.st7{fill:#BAD982;}
	.st8{fill-rule:evenodd;clip-rule:evenodd;fill:#EFF5D9;}
</style>
<g>
	<path class="st0" d="M25,12.8c0-6.9-5.6-12.5-12.5-12.5C5.6,0.3,0,5.9,0,12.8c0,4.8,2.8,9,6.8,11.1L12.5,43l5.6-19
		C22.2,22,25,17.7,25,12.8z"/>
	<g>
		<path id="Path_20" class="st1" d="M13.8,7.1c-0.3,0.2-0.7,0.2-0.9,0c0,0-0.4-0.3-0.3-1.1c0.1-0.3,0.2-0.5,0.3-0.8
			C13,5.1,13.1,4.9,13,4.7c0,0,1,0.4,1.5,1c0.5,0.6,0.3,1.1,0.3,1.1c-0.1,0.2-0.4,0.4-0.6,0.4c0,0,0.1-0.8-0.6-1.7
			c0,0,0.4,0.9,0.4,1.4c0,0.4,0,0.8-0.1,1.1c0,0,0,0.2-0.2,0.2c0,0-0.1,0-0.1-0.1c0.1-0.1,0.1-0.2,0.2-0.3
			C13.8,7.6,13.8,7.4,13.8,7.1z"/>
		<path id="Path_21" class="st2" d="M15.4,8.1c0,0-1.4-0.5-1.1-1.9c0,0,0.1-1.2,1.8-1.9c0.6-0.2,1.3-0.4,2-0.4
			c0.4,0,0.9-0.2,1.2-0.5c0,0,0.5,2.4-0.1,4.2c-0.6,1.8-1.8,1.9-1.8,1.9s-1.1,0.2-1.6-0.8c0,0,1.6-0.9,2.7-3.3c0,0-1.3,1.9-2.4,2.5
			c0,0-0.8,0.7-2.4,1.2c0,0-0.5,0.2-0.7-0.1c0,0-0.1-0.3,0.2-0.3c0.3,0,0.5,0,0.8,0C14.1,8.7,15.1,8.4,15.4,8.1z"/>
		<path id="Path_22" class="st2" d="M18.5,14.2c0.3-1.3,0.2-2.7-0.3-3.9c-0.5-1.2-1.4-2.1-2.6-2.8c-1.7-1-3.6-1.3-5.5-0.7
			c-2.9,0.9-4.6,3.1-4.6,6c0,1.6,0.7,2.6,1,3.5c0.1,0.3,1.4,3.4,1.4,3.4l0,0c0.1-1-0.9-6.9-0.2-8.3c0.6-1.2,1.5-1.8,2.8-2.2
			c1.4-0.5,2.8-0.1,3.9,0.8c1.3,1.1,1.2,2.1,1.1,2.8c-0.1,0.5-0.7,1.5-1.4,2c-0.4,0.2-1.2,0.6-1.6,0.7c-0.8,0.3,0.4,1.5,1.4,2.1
			c0.5,0.3,1.6,0.9,1.6,0.9C16.4,17.8,18.1,15.7,18.5,14.2z"/>
		<path id="Path_23" class="st3" d="M10.9,14.7c-0.1-0.5,0-0.5,0.5-0.4c0.8,0.3,1.5,0.2,2-0.4c0.7-0.7,0.8-1.4,0.3-2.3
			c-0.7-1.5-2.9-1.6-4-0.3c-1,1.2-1.1,2.5-0.6,3.9c0.9,2.6,5.7,5.6,8.3,5.8C15,20.2,11.1,15.9,10.9,14.7z"/>
		<path id="Path_24" class="st4" d="M9.4,11.8c0,0,0.8,5.8,0.4,9.1c-0.1-0.3-0.8-5.1-0.9-6.1C8.8,13.2,9.3,12.4,9.4,11.8z"/>
		<g id="Group_1" transform="translate(225.265 202.942)">
			<path id="Path_25" class="st5" d="M-206.7-197.5c0,0-2.1,2.3-2.5,2.4l0.2,0.1C-209-195.1-208.1-195.5-206.7-197.5z"/>
			<path id="Path_26" class="st5" d="M-207.5-196.6c-0.2-0.5-0.2-1,0-1.4c0,0,0,0.8,0.2,1.2L-207.5-196.6z"/>
			<path id="Path_27" class="st5" d="M-208.3-195.9c-0.2-0.5-0.2-1.1,0-1.6c0,0,0,0.9,0.2,1.4L-208.3-195.9z"/>
			<path id="Path_28" class="st5" d="M-208.9-195.3c-0.2-0.5-0.2-1.1,0-1.7c0,0,0,1,0.2,1.5L-208.9-195.3z"/>
			<path id="Path_29" class="st5" d="M-207.3-196.4c0,0,0.4,0.1,0.9-0.6c0,0-0.4,0.4-0.8,0.4L-207.3-196.4z"/>
			<path id="Path_30" class="st5" d="M-207.9-195.6c0.4,0,0.8-0.2,1.1-0.6c0,0-0.5,0.4-0.9,0.4L-207.9-195.6z"/>
			<path id="Path_31" class="st5" d="M-208.5-194.9c0.7,0.1,1.4,0,2.1-0.3c0,0-1.2,0.2-1.8,0L-208.5-194.9z"/>
			<circle id="Ellipse_1" class="st6" cx="-210.4" cy="-197.8" r="0.2"/>
			<circle id="Ellipse_2" class="st6" cx="-209.7" cy="-196.5" r="0.2"/>
			<circle id="Ellipse_3" class="st6" cx="-206.3" cy="-196.3" r="0.2"/>
			<circle id="Ellipse_4" class="st6" cx="-206.9" cy="-198.5" r="0.2"/>
		</g>
		<circle id="Ellipse_5" class="st7" cx="13.2" cy="5.9" r="0.2"/>
		<path id="Path_32" class="st8" d="M14.9,5c0,0,0.2,0,0.2,0.2C15.1,5.1,15.1,5,14.9,5C15,4.9,15,4.9,14.9,5L14.9,5z"/>
		<path id="Path_33" class="st8" d="M18.3,4.3c0,0,0.2,0,0.2,0.2C18.6,4.4,18.5,4.3,18.3,4.3C18.4,4.3,18.4,4.3,18.3,4.3L18.3,4.3z"
			/>
		<path id="Path_34" class="st8" d="M15.6,6.3c0,0,0.2,0,0.2,0.2C15.8,6.4,15.7,6.3,15.6,6.3C15.6,6.2,15.6,6.2,15.6,6.3L15.6,6.3z"
			/>
		<path id="Path_35" class="st8" d="M19,6.6c0,0,0.2,0,0.2,0.2C19.2,6.7,19.1,6.5,19,6.6C19,6.5,19,6.5,19,6.6L19,6.6z"/>
		<path id="Path_36" class="st8" d="M13.1,5.9c0,0,0.1-0.2,0.3-0.1C13.3,5.7,13.2,5.7,13.1,5.9C13.1,5.8,13.1,5.8,13.1,5.9L13.1,5.9
			z"/>
	</g>
</g>
</svg>
