<svg id="Group_124" data-name="Group 124" xmlns="http://www.w3.org/2000/svg" width="674.654" height="187.156" viewBox="0 0 674.654 187.156">
  <path id="Path_1353" data-name="Path 1353" d="M645.7,443.762a14.185,14.185,0,0,1-2.286,2.54c-6.226,5.326-12.9,9.776-20.571,12.2a29.707,29.707,0,0,1-4.484,1c-5.08.762-8.655-1.187-10.753-5.467-.881-1.8-1.438-3.788-2.247-5.963-.93.972-1.709,1.761-2.46,2.579a42.325,42.325,0,0,1-11.441,9.122,13.626,13.626,0,0,1-4.042,1.472c-2.548.392-3.915-1.469-3.109-3.973a8.154,8.154,0,0,1,1.044-2.12,44.829,44.829,0,0,1,12.612-12.429c2.137-1.361,4.412-2.261,6.861-1.772,2.626.522,3.481,1.761,3.705,4.495a27.473,27.473,0,0,0,1.281,7.084c1.306,3.595,4.326,5.19,8.285,4.307A47.032,47.032,0,0,0,642.754,442c1.276-1.538,2.258-2.545,3.354-1.866C647.3,440.879,646.936,442.039,645.7,443.762Zm-44.516,2.579c-4.671,2.035-8.227,5.516-11.339,9.616A33.392,33.392,0,0,0,601.183,446.34Z" transform="translate(-584.075 -318.045)" fill="#052026"/>
  <path id="Path_1354" data-name="Path 1354" d="M646.825,521.389c-.751.789-1.466,1.607-2.259,2.355-3.153,2.99-16.192,18.887-29.947,25.154-5.207,2.25-9.459.45-10.483-4.757a32.468,32.468,0,0,1-.246-10.223c.63-4.865,4.108-18.81,5.2-23.663a5.572,5.572,0,0,0-.069-3.711,5.023,5.023,0,0,1,1.819-6.173c1.659-1.115,2.123-2.554,2.67-4.127a327.478,327.478,0,0,1,25.364-56.1c3.459-6,7.391-11.772,11.251-17.565a35.576,35.576,0,0,1,4.489-5.179c1.657-1.659,3.6-3.067,5.883-2.233,2.477.9,2.65,3.285,2.308,5.6a53.916,53.916,0,0,1-1.96,8.713A180.864,180.864,0,0,1,650.086,455a283.548,283.548,0,0,1-29.019,45.507c-1.8,2.333-4.08,4.31-6.071,6.51a7.147,7.147,0,0,0-1.6,2.479c-1.811,5.881-5.409,20.9-5.8,26.891a22.333,22.333,0,0,0,.417,6.041c.618,2.9,2.363,3.65,5.27,2.333,13.813-6.494,34.1-27.99,37.73-39.005,8.316-29.121,18.879-54.991,32.382-82.621,2.526-5.171,5.607-10.132,8.617-15.094a17.294,17.294,0,0,1,3.862-4.31c2.322-1.875,4.873-1.3,5.621,1.325a12.67,12.67,0,0,1,.348,5.676,86.592,86.592,0,0,1-3.205,12.89c-8.462,23.821-18.5,47.117-31.33,69.38-3.967,6.88-8.724,13.368-13.029,20.088a16.287,16.287,0,0,0-2.247,4.823,189.323,189.323,0,0,0-5.187,31.857,80.5,80.5,0,0,0,.428,11.864c.2,2.363,1.356,4.033,4.163,4.092,1.861.039,2.59,1.165,2.339,2.59a3.268,3.268,0,0,1-3.2,2.515c-3.189.212-5.751-.983-6.742-3.879a32.782,32.782,0,0,1-1.745-8.909c-.353-7.424.848-14.936,2.12-22.426.679-3.992,2.308-9.978,3.056-13.964C647.121,521.563,646.974,521.478,646.825,521.389ZM657.65,421.67c-.207-.086-.42-.168-.627-.257a18.119,18.119,0,0,0-2.093,2.1c-3.059,4.274-6.284,8.459-9.033,12.9a310.334,310.334,0,0,0-27.167,56.827c-.26.7-.431,1.425-.641,2.137a6.211,6.211,0,0,0,2.029-1.88,303.145,303.145,0,0,0,22.056-34.974,226.249,226.249,0,0,0,13.636-30.59C656.541,425.88,657.043,423.763,657.65,421.67Zm39.508-12.46c-.3-.116-.594-.235-.892-.351a34.986,34.986,0,0,0-2.4,3.178c-2.4,4-4.92,7.965-7.013,12.1a466.844,466.844,0,0,0-29.033,71.9c-.279.908-.489,1.828-.732,2.742a10.263,10.263,0,0,0,2.446-2.965A290.242,290.242,0,0,0,677.4,460.67c5.922-13.887,11.51-27.887,17.087-41.89A88.722,88.722,0,0,0,697.158,409.21Z" transform="translate(-549.691 -383.702)" fill="#052026"/>
  <path id="Path_1355" data-name="Path 1355" d="M816.974,408.508c.066,1.356-1.088,2.485-2.932,2.6-2.363.149-4.713.08-7.076.152-13.307.436-26.6.414-39.938,1.466-12.035.947-24.141,2.777-36.192,4.782-12.153,2.021-24.282,4.749-36.421,7.129a4.593,4.593,0,0,0-3.951,3.084c-9.884,25.129-19.514,50.314-25.488,76.316-1.209,5.27-2.021,10.607-2.717,15.916a24.3,24.3,0,0,0,.29,7.024c.563,3.415,2.231,4.108,5.522,2.322a31.3,31.3,0,0,0,5.591-3.885c3.79-3.307,7.614-6.621,11.107-10.24q13.492-13.981,26.672-28.252c2.479-2.675,4.55-5.72,6.806-8.6.282-.356.494-.919.834-1.055.862-.353,1.276-.878,2.021-.693,1.171.276,1.416,1.256.989,2.413a51.718,51.718,0,0,1-4.52,5.6c-12.054,12.913-23.064,25.055-36.054,37.009-2.606,2.4-5.331,4.682-8.1,6.885a28.454,28.454,0,0,1-4.859,3.123c-4.417,2.225-7.394,1.019-8.567-3.382-1.013-3.8-.781-7.819-.3-11.849,1.383-11.67,4.448-23.158,7.752-34.616,4.967-17.25,11.262-34.193,17.49-51.156.414-1.129.776-2.275,1.333-3.926-2.581.5-4.685.889-6.794,1.325-9.445,1.971-18.884,3.987-28.337,5.905a27.143,27.143,0,0,1-5.486.494c-2.474-.008-3.81-1.171-3.967-3.073a7.711,7.711,0,0,1,3.114-6.06,2.232,2.232,0,0,1,2.926.262,2.1,2.1,0,0,1,.069,2.948,18.592,18.592,0,0,1-2.452,2.131c1.886,1.665,3.78,1.317,5.5,1.234a53.858,53.858,0,0,0,7.112-.826c9.561-1.739,19.119-3.57,28.707-5.37,1.268-2.949,2.341-5.651,3.595-8.294a14.052,14.052,0,0,1,2.4-3.68c1.546-1.6,3.793-1.543,4.834-.133,1.033,1.394.613,3.023-1.441,4.381-2.245,1.485-2.72,3.73-4,6.331,4.417-.875,8.33-1.662,12.242-2.416q13.053-2.526,26.112-5.016c18.092-3.437,36.2-5.276,54.306-7.137,7.65-.784,15.3-1.289,22.943-1.949,2.151-.182,4.307-.439,6.458-.707C815.983,406.794,816.914,407.241,816.974,408.508Z" transform="translate(-482.672 -376.07)" fill="#052026"/>
  <path id="Path_1356" data-name="Path 1356" d="M673.158,521.347c1.287-1.637,2.035-2.617,2.813-3.578,4.917-6.041,9.724-12.167,14.809-18.07a93.866,93.866,0,0,1,7.962-7.562A12.069,12.069,0,0,1,701,490.6c3.995-2.239,6.836-1.328,7.783,2.838a91.1,91.1,0,0,1,1.132,9.149,33.647,33.647,0,0,0,.734,5.005c.928,3.283,2.973,4.147,6.383,2.706a30.074,30.074,0,0,0,4.729-2.639,199.946,199.946,0,0,0,22.794-17.526,10.482,10.482,0,0,1,2.678-2.073c.765-.3,2.833.331-.527,3.471-7.741,6.068-14.213,12.794-22.677,17.664a33.136,33.136,0,0,1-7.681,3.258c-3.514.966-5.811-.273-7-3.492a33.724,33.724,0,0,1-1.27-5.823c-.434-2.493-.613-5.069-1.2-7.509-.9-3.8-2.239-4.075-5.646-1.386-.895.709-1.75,1.482-2.573,2.278-8.12,7.866-14.853,16.844-21.333,25.993-1.077,1.518-1.03,3.746-1.621,5.621a6.641,6.641,0,0,1-1.32,2.634c-2.711,2.761-6.593,1.875-7.04-1.7a20.579,20.579,0,0,1,.32-6.132c1.7-9.263,2.763-11.358,6.085-20.306.657-1.767,1.516-3.448,1-5.386a3.43,3.43,0,0,1,1.2-2.548,10.9,10.9,0,0,0,2.888-4.536,415.255,415.255,0,0,1,39.417-71.906c3.951-5.729,8.285-11.228,12.606-16.706a23.913,23.913,0,0,1,5.025-4.63c3.18-2.225,5.991-1.09,6.107,2.548a22.287,22.287,0,0,1-.977,7.424,90.451,90.451,0,0,1-4.95,12.529,299.23,299.23,0,0,1-49.521,71.594,9.453,9.453,0,0,0-2.769,4.183c-.235.914-1.635,1.665-2.5,2.493-.7.665-1.781,1.253-2.026,2.015-2.855,8.818-3.335,10.8-6.074,19.649A9.65,9.65,0,0,0,673.158,521.347Zm64.969-121.221c-.193-.1-.392-.2-.585-.293a28.645,28.645,0,0,0-3.026,2.584c-2.212,2.468-4.467,4.936-6.441,7.59a374.77,374.77,0,0,0-42.437,73.7,12.329,12.329,0,0,0-.505,1.952,13.109,13.109,0,0,0,3.189-2.811,327.055,327.055,0,0,0,44.927-68.033A88.788,88.788,0,0,0,737.24,404.8,29.3,29.3,0,0,0,738.126,400.126Z" transform="translate(-437.644 -395.777)" fill="#052026"/>
  <path id="Path_1357" data-name="Path 1357" d="M741.783,434.121c-.768.842-20.5,15.058-33.266,17.6a24.889,24.889,0,0,1-8.882.066c-3.476-.591-5.406-2.918-5.4-6.858a11.448,11.448,0,0,1,1.775-6.5c1.825-2.921,3.523-5.886,6.14-8.175a18.675,18.675,0,0,1,4.517-2.946,4.132,4.132,0,0,1,4.859,6.458,20.224,20.224,0,0,1-4.26,4.4c-3.509,2.476-7.214,4.644-11.115,7.112.213,3.241,1.312,4.6,4.459,5.224,4.053.8,8.155-.163,12.134-1.665a99.07,99.07,0,0,0,26.783-15.809,35.96,35.96,0,0,0,3.3-3.487c1.538-1.634,2.234-2.106,3.222-1.162S743.928,432.467,741.783,434.121Zm-42.4,4.2a17.344,17.344,0,0,0,8.283-6.786C703.8,432.31,701.475,435.164,699.387,438.32Z" transform="translate(-390.104 -340.924)" fill="#052026"/>
  <path id="Path_1358" data-name="Path 1358" d="M899.28,398.4c.061,1.353-1.091,2.485-2.935,2.6-2.36.149-4.71.08-7.073.155-13.31.431-26.6.409-39.938,1.463-12.035.95-24.141,2.775-36.192,4.782-12.156,2.018-24.281,4.749-36.421,7.131a4.585,4.585,0,0,0-3.951,3.084c-9.887,25.126-19.514,50.311-25.488,76.31-1.209,5.273-2.021,10.607-2.717,15.919a24.194,24.194,0,0,0,.287,7.024c.563,3.412,2.234,4.105,5.522,2.322a31.45,31.45,0,0,0,5.594-3.882c3.79-3.313,7.612-6.626,11.1-10.243q13.492-13.981,26.675-28.255c2.479-2.672,4.553-5.718,6.805-8.6.282-.359.494-.917.834-1.057.861-.353,1.273-.875,2.018-.693,1.173.281,1.416,1.259.994,2.413a51.82,51.82,0,0,1-4.522,5.6c-12.054,12.91-23.067,25.055-36.054,37.009-2.606,2.4-5.334,4.682-8.1,6.886a28.685,28.685,0,0,1-4.859,3.122c-4.42,2.228-7.4,1.019-8.567-3.385-1.016-3.8-.781-7.819-.307-11.85,1.386-11.667,4.448-23.153,7.755-34.616,4.967-17.25,11.259-34.193,17.49-51.15.414-1.129.776-2.278,1.331-3.929-2.578.5-4.685.886-6.792,1.322-9.445,1.974-18.887,3.989-28.34,5.908a27.158,27.158,0,0,1-5.486.5c-2.474-.011-3.81-1.174-3.962-3.076a7.688,7.688,0,0,1,3.112-6.06,2.235,2.235,0,0,1,2.926.262,2.1,2.1,0,0,1,.069,2.946,18.058,18.058,0,0,1-2.454,2.137c1.886,1.659,3.783,1.314,5.5,1.229a54.252,54.252,0,0,0,7.109-.823c9.564-1.742,19.122-3.57,28.71-5.37,1.267-2.946,2.341-5.651,3.592-8.291a13.979,13.979,0,0,1,2.4-3.683c1.541-1.6,3.79-1.543,4.831-.135s.61,3.026-1.441,4.384c-2.245,1.483-2.72,3.733-3.995,6.333,4.415-.875,8.327-1.665,12.239-2.421q13.057-2.522,26.112-5.014c18.095-3.437,36.206-5.273,54.306-7.137,7.653-.781,15.3-1.287,22.946-1.949,2.148-.185,4.3-.442,6.458-.707C898.286,396.687,899.216,397.137,899.28,398.4Z" transform="translate(-337.74 -393.865)" fill="#052026"/>
  <path id="Path_1359" data-name="Path 1359" d="M807.676,435.932c-3.564,3.054-26.369,23.42-40.317,28.014-1.256.417-2.562.619-4.6,1.1a34.66,34.66,0,0,1-5.538-.726,8.328,8.328,0,0,1-6.424-7.126c-.947-6.3.878-12.493,3.382-18.608a2.918,2.918,0,0,1,.353-.582c1.151-1.626,2.984-2.214,4.241-1.361,1.223.826,1.411,2.377.107,3.973-2.824,3.459-3.768,7.416-4.563,11.438A12.67,12.67,0,0,0,754.1,454c-.212,5.041,2.582,8.009,7.587,7.628a23.919,23.919,0,0,0,6.7-1.6c12.471-4.823,24.79-15.8,35.242-25.612a18.166,18.166,0,0,1,2.518-1.748c1.085-.552,1.676-1.021,2.347-.011C809.151,433.654,808.513,435,807.676,435.932Zm-44.494-14.423c-1.132-1.2-.878-2.686-.193-4.21.74-1.659,1.455-3.349,3.382-3.818a2.163,2.163,0,0,1,2.546,2.73,24.276,24.276,0,0,1-1.242,4.128C766.857,422.351,764.516,422.928,763.182,421.509Z" transform="translate(-290.945 -364.657)" fill="#052026"/>
  <path id="Path_1360" data-name="Path 1360" d="M831.592,412.062a50.609,50.609,0,0,0-4.658,4.191q-7.653,9.028-15.118,18.224c-2.521,3.111-4.79,6.414-7.28,9.553a12.563,12.563,0,0,1-3.023,2.739c-1.745,1.113-3.291.42-3.446-1.532a19.291,19.291,0,0,1,.276-4.21c.445-3.145,1.052-6.289,1.438-9.437a48.645,48.645,0,0,0,.033-5.3c-1.2,1.091-2.068,1.761-2.8,2.554a106.9,106.9,0,0,0-17.589,25.588,10.668,10.668,0,0,0-.922,3.763,3.471,3.471,0,0,1-2.672,3.432c-.732.226-1.45.541-2.165.842-2.7,1.121-4.539.146-4.506-2.7a26.02,26.02,0,0,1,.856-6.165c2.073-8.059,4.047-12.49,3.415-15.7a3.324,3.324,0,0,1,2.128-3.52c.884-.373,2.377-.411,2.9.108a4,4,0,0,1,.792,3.1c-.174,1.243-1.157,2.455-1.488,3.725-2.14,8.274.315-1.223-1.764,7.06a1.872,1.872,0,0,0,.218,1.466c.489-.765,1.01-1.51,1.455-2.3a106.29,106.29,0,0,1,14.591-20.259,30.649,30.649,0,0,1,5.094-4.553c3.283-2.22,6.217-1,6.38,2.73a42.577,42.577,0,0,1-.748,7.783,53.459,53.459,0,0,0-.967,8.514c1.184-1.637,2.358-3.283,3.556-4.909,4.058-5.533,7.979-11.17,12.247-16.537a90.4,90.4,0,0,1,8.545-8.918c1.825-1.745,4.022-3.349,6.521-2.419,2.554.95,2.592,3.608,2.482,5.93-.276,5.624-.878,11.275-1.328,16.913-.489,6.088-.781,12.162.329,18.009a24.23,24.23,0,0,0,1.927,5.892,5.738,5.738,0,0,0,7,3.3,25.716,25.716,0,0,0,6.833-2.518,116.4,116.4,0,0,0,10.836-7.065,157.153,157.153,0,0,0,19.679-16.529c1.408-1.436,5.635-7.349,7.01-6.234,1.223.773.265,2.062-.718,3.771-2.551,4.139-23.749,21.971-36.076,28.608a25.517,25.517,0,0,1-6.551,2.419c-4.68,1.044-8.36-.494-10.119-4.638a39.563,39.563,0,0,1-2.485-9.655c-1.077-7.28-.063-14.831.337-22.3.16-2.921.265-5.845.259-8.749A26.524,26.524,0,0,0,831.592,412.062Z" transform="translate(-258.167 -373.022)" fill="#052026"/>
  <path id="Path_1361" data-name="Path 1361" d="M857.156,419.955c-.767.842-20.5,15.058-33.265,17.6a24.892,24.892,0,0,1-8.882.066c-3.476-.591-5.406-2.918-5.4-6.858a11.446,11.446,0,0,1,1.775-6.5c1.825-2.921,3.523-5.886,6.14-8.175a18.713,18.713,0,0,1,4.514-2.946A4.134,4.134,0,0,1,826.9,419.6a20.3,20.3,0,0,1-4.263,4.4c-3.512,2.474-7.214,4.644-11.115,7.112.213,3.241,1.312,4.6,4.459,5.224,4.053.8,8.156-.163,12.131-1.665A99.08,99.08,0,0,0,854.9,418.864a36.315,36.315,0,0,0,3.3-3.487c1.535-1.634,2.231-2.107,3.222-1.162S859.3,418.3,857.156,419.955Zm-42.4,4.2a17.358,17.358,0,0,0,8.283-6.786C819.167,418.144,816.848,421,814.76,424.154Z" transform="translate(-186.949 -365.869)" fill="#052026"/>
</svg>
