<?xml version="1.0" encoding="utf-8"?>
<!-- Generator: Adobe Illustrator 24.3.0, SVG Export Plug-In . SVG Version: 6.00 Build 0)  -->
<svg version="1.1" id="Layer_1" xmlns="http://www.w3.org/2000/svg" xmlns:xlink="http://www.w3.org/1999/xlink" x="0px" y="0px"
	 viewBox="0 0 460 161" style="enable-background:new 0 0 460 161;" xml:space="preserve">
<style type="text/css">
	.st0{enable-background:new    ;}
	.st1{fill:#007B45;}
</style>
<g class="st0">
	<path class="st1" d="M38.6,2.5v96h55.7V121H15.3V2.5H38.6z"/>
	<path class="st1" d="M117.8,31.8c5.4-9.3,12.8-16.8,22.1-22.3c9.3-5.5,19.3-8.3,30.2-8.3c10.8,0,20.9,2.8,30.2,8.3
		c9.3,5.5,16.7,13,22.2,22.3c5.5,9.3,8.3,19.4,8.3,30.1c0,10.9-2.8,21-8.3,30.3c-5.5,9.2-12.9,16.6-22.2,22
		c-9.3,5.4-19.3,8.1-30.2,8.1c-10.9,0-21-2.7-30.3-8.1c-9.2-5.4-16.6-12.7-22-22c-5.4-9.2-8.1-19.3-8.1-30.3
		C109.6,51.2,112.4,41.1,117.8,31.8z M138.7,80.9c3.3,5.8,7.7,10.4,13.4,13.8c5.6,3.4,11.9,5.1,18.8,5.1c6.7,0,12.7-1.7,18.2-5.1
		c5.5-3.4,9.8-7.9,12.9-13.7c3.1-5.7,4.7-12.1,4.7-19.1c0-7.1-1.6-13.5-4.8-19.3c-3.2-5.8-7.6-10.4-13.1-13.8
		c-5.5-3.4-11.7-5.1-18.4-5.1c-6.8,0-12.9,1.7-18.4,5.1c-5.5,3.4-9.9,8-13.1,13.8c-3.2,5.8-4.8,12.2-4.8,19.3
		C133.8,68.8,135.4,75.1,138.7,80.9z"/>
	<path class="st1" d="M345.7,2.5l-54.1,124l-54.1-124h28l27,66.8L318,2.5H345.7z"/>
	<path class="st1" d="M448.5,2.5V25h-57.5v25.3h50.9v22.5h-50.9v25.6h59.7V121h-83.1V2.5H448.5z"/>
</g>
</svg>
